<?xml version="1.0" standalone="no"?>
<!DOCTYPE svg PUBLIC "-//W3C//DTD SVG 20010904//EN"
 "http://www.w3.org/TR/2001/REC-SVG-20010904/DTD/svg10.dtd">
<svg version="1.0" xmlns="http://www.w3.org/2000/svg"
 width="800.000000pt" height="800.000000pt" viewBox="0 0 800.000000 800.000000"
 preserveAspectRatio="xMidYMid meet">

<g transform="translate(0.000000,800.000000) scale(0.100000,-0.100000)"
fill="#000000" stroke="none">
<path d="M3908 6183 c17 -2 47 -2 65 0 17 2 3 4 -33 4 -36 0 -50 -2 -32 -4z"/>
<path d="M3763 6173 c9 -2 25 -2 35 0 9 3 1 5 -18 5 -19 0 -27 -2 -17 -5z"/>
<path d="M3828 6173 c6 -2 18 -2 25 0 6 3 1 5 -13 5 -14 0 -19 -2 -12 -5z"/>
<path d="M3698 6163 c6 -2 18 -2 25 0 6 3 1 5 -13 5 -14 0 -19 -2 -12 -5z"/>
<path d="M3630 6150 c0 -5 10 -10 23 -10 18 0 19 2 7 10 -19 13 -30 13 -30 0z"/>
<path d="M3560 6146 c0 -2 9 -6 20 -9 11 -3 18 -1 14 4 -5 9 -34 13 -34 5z"/>
<path d="M3528 6133 c7 -3 16 -2 19 1 4 3 -2 6 -13 5 -11 0 -14 -3 -6 -6z"/>
<path d="M3680 6130 c0 -13 70 -13 90 0 11 7 0 10 -37 10 -29 0 -53 -4 -53
-10z"/>
<path d="M3485 6123 c34 -8 44 -26 10 -19 -35 7 -15 -8 25 -18 18 -5 21 -5 11
3 -12 7 -7 12 20 20 l34 11 -32 -5 c-18 -2 -35 0 -38 5 -3 6 -16 9 -28 9 -20
-1 -20 -2 -2 -6z"/>
<path d="M3848 6123 c7 -3 16 -2 19 1 4 3 -2 6 -13 5 -11 0 -14 -3 -6 -6z"/>
<path d="M3923 6123 c15 -2 37 -2 50 0 12 2 0 4 -28 4 -27 0 -38 -2 -22 -4z"/>
<path d="M3351 6091 c-10 -7 -7 -9 12 -8 14 1 23 5 20 10 -6 9 -15 9 -32 -2z"/>
<path d="M3563 6093 c9 -2 23 -2 30 0 6 3 -1 5 -18 5 -16 0 -22 -2 -12 -5z"/>
<path d="M3631 6093 c-19 -4 -21 -7 -10 -14 12 -8 12 -10 -1 -19 -12 -7 -8
-10 15 -10 25 0 30 4 31 25 1 14 -1 24 -5 24 -3 -1 -17 -4 -30 -6z"/>
<path d="M3757 6083 c-12 -11 -8 -33 6 -33 7 0 18 9 25 20 10 17 10 20 -6 20
-10 0 -22 -3 -25 -7z"/>
<path d="M3818 6083 c7 -3 16 -2 19 1 4 3 -2 6 -13 5 -11 0 -14 -3 -6 -6z"/>
<path d="M3304 6071 c-5 -5 -18 -11 -29 -14 l-20 -5 20 -1 c22 -1 52 15 44 23
-3 3 -10 2 -15 -3z"/>
<path d="M3920 6068 c0 -7 -3 -23 -6 -35 -5 -17 -2 -23 10 -23 12 0 16 9 16
35 0 19 -4 35 -10 35 -5 0 -10 -6 -10 -12z"/>
<path d="M3980 6052 c0 -18 5 -32 10 -32 6 0 9 11 7 25 -5 37 -17 42 -17 7z"/>
<path d="M3324 6050 c-5 -5 -40 -12 -78 -14 -64 -4 -102 -15 -60 -17 88 -6
174 10 174 32 0 12 -24 11 -36 -1z"/>
<path d="M3709 6030 c0 -3 -2 -13 -4 -22 -4 -20 10 -24 21 -7 3 6 1 16 -5 22
-6 6 -11 9 -12 7z"/>
<path d="M3090 5990 c-30 -17 -48 -30 -40 -30 8 0 24 7 34 15 21 16 40 20 32
7 -2 -4 4 -8 15 -8 24 0 25 16 2 16 -14 1 -12 4 7 15 48 27 5 14 -50 -15z"/>
<path d="M3238 6003 c7 -3 16 -2 19 1 4 3 -2 6 -13 5 -11 0 -14 -3 -6 -6z"/>
<path d="M3525 5974 c2 -29 35 -70 35 -42 0 9 -6 18 -12 21 -9 3 -8 10 6 26
11 11 14 21 8 21 -7 0 -12 -5 -12 -11 0 -8 -4 -8 -13 -1 -10 8 -12 5 -12 -14z"/>
<path d="M3575 5972 c-3 -14 -4 -27 0 -30 3 -3 5 2 5 11 0 9 12 23 28 31 l27
15 -27 -1 c-19 -2 -29 -9 -33 -26z"/>
<path d="M3645 5990 c-3 -5 0 -10 7 -10 7 0 24 -3 38 -6 23 -5 23 -5 -4 10
-33 19 -33 19 -41 6z"/>
<path d="M3736 5991 c-4 -6 -2 -11 4 -11 7 0 9 -9 6 -22 -3 -13 -3 -17 0 -10
3 6 11 9 16 6 7 -4 8 -2 4 4 -4 7 -2 12 3 12 6 0 11 8 11 18 0 14 -2 15 -10 2
-8 -12 -11 -13 -19 -1 -6 9 -11 10 -15 2z"/>
<path d="M3820 5985 c7 -8 16 -12 21 -9 16 9 10 20 -12 21 -17 2 -18 -1 -9
-12z"/>
<path d="M3902 5988 c-7 -7 -11 -21 -11 -32 1 -20 1 -20 6 -1 3 11 13 25 22
32 9 7 11 13 6 13 -6 0 -16 -5 -23 -12z"/>
<path d="M3981 5984 c0 -11 3 -14 6 -6 3 7 2 16 -1 19 -3 4 -6 -2 -5 -13z"/>
<path d="M3856 5971 c-3 -5 1 -11 9 -15 8 -3 15 -1 15 4 0 13 -18 22 -24 11z"/>
<path d="M3307 5964 c-11 -12 3 -24 29 -24 15 0 24 6 24 15 0 15 -40 21 -53 9z"/>
<path d="M2999 5943 c-13 -17 -13 -17 6 -3 11 8 22 16 24 17 2 2 0 3 -6 3 -6
0 -17 -8 -24 -17z"/>
<path d="M3090 5950 c20 -13 33 -13 25 0 -3 6 -14 10 -23 10 -15 0 -15 -2 -2
-10z"/>
<path d="M3962 5883 l2 -78 3 70 c2 39 9 73 16 77 8 5 6 8 -5 8 -16 0 -18 -10
-16 -77z"/>
<path d="M3030 5930 c11 -7 60 -2 60 6 0 2 -16 3 -35 2 -20 -1 -31 -4 -25 -8z"/>
<path d="M3155 5930 c-4 -6 5 -10 19 -10 14 0 26 5 26 10 0 6 -9 10 -19 10
-11 0 -23 -4 -26 -10z"/>
<path d="M3981 5924 c0 -11 3 -14 6 -6 3 7 2 16 -1 19 -3 4 -6 -2 -5 -13z"/>
<path d="M3520 5916 c0 -9 5 -16 10 -16 6 0 10 4 10 9 0 6 -4 13 -10 16 -5 3
-10 -1 -10 -9z"/>
<path d="M3641 5908 c0 -22 1 -22 9 -3 6 13 9 15 9 5 1 -13 3 -13 10 -1 7 11
10 10 14 -5 5 -17 6 -17 4 1 -1 12 -11 21 -25 23 -17 3 -22 -1 -21 -20z"/>
<path d="M2950 5908 c15 -19 12 -32 -5 -18 -12 10 -21 10 -45 0 -17 -7 -33
-17 -36 -21 -3 -5 11 -2 30 8 28 13 39 14 48 5 6 -6 8 -15 4 -19 -4 -4 -10 -2
-14 4 -5 8 -14 7 -30 -5 -22 -17 -22 -17 17 -17 22 0 38 2 35 6 -2 3 5 14 16
24 23 21 27 40 6 32 -7 -3 -19 -1 -25 4 -8 6 -8 5 -1 -3z"/>
<path d="M3833 5862 c0 -38 3 -58 8 -50 7 10 9 9 9 -4 0 -20 35 -25 46 -7 4 8
-1 9 -16 4 -15 -5 -20 -4 -16 4 4 6 15 11 24 12 9 0 12 3 6 5 -6 3 -10 15 -9
27 1 12 0 14 -2 5 -2 -10 -9 -18 -14 -18 -6 0 -7 -5 -3 -11 4 -7 1 -10 -7 -7
-8 3 -17 25 -20 54 -6 48 -6 48 -6 -14z"/>
<path d="M3749 5898 c-5 -20 -4 -50 3 -60 7 -10 8 -9 5 2 -2 8 0 23 4 32 6 10
5 19 -1 23 -5 3 -10 5 -11 3z"/>
<path d="M3982 5840 c0 -14 2 -19 5 -12 2 6 2 18 0 25 -3 6 -5 1 -5 -13z"/>
<path d="M3680 5830 c0 -5 5 -10 11 -10 5 0 7 5 4 10 -3 6 -8 10 -11 10 -2 0
-4 -4 -4 -10z"/>
<path d="M3520 5815 c0 -8 9 -15 20 -15 24 0 27 15 4 24 -22 9 -24 8 -24 -9z"/>
<path d="M2782 5815 c4 -4 4 -13 -1 -19 -6 -7 -4 -16 4 -23 10 -9 13 -6 13 13
0 13 -6 27 -12 31 -6 3 -8 3 -4 -2z"/>
<path d="M3675 5800 c-3 -6 1 -7 9 -4 18 7 21 14 7 14 -6 0 -13 -4 -16 -10z"/>
<path d="M3981 5784 c0 -11 3 -14 6 -6 3 7 2 16 -1 19 -3 4 -6 -2 -5 -13z"/>
<path d="M3742 5769 c-6 -10 -19 -19 -29 -22 -10 -2 -2 -3 17 0 l35 3 -25 -14
c-14 -8 -45 -18 -70 -22 l-44 -7 49 -13 c62 -16 68 -16 30 1 -29 14 -29 14 -5
15 28 1 65 25 65 42 0 6 6 13 13 16 6 2 12 -1 12 -7 0 -6 5 -11 12 -11 6 0 4
7 -5 18 -21 23 -41 24 -55 1z"/>
<path d="M3961 5760 c6 -16 15 -30 20 -30 5 0 3 14 -6 30 -9 17 -17 30 -20 30
-2 0 1 -13 6 -30z"/>
<path d="M2692 5754 c-18 -14 -29 -30 -26 -35 3 -6 -2 -16 -12 -23 -15 -11
-13 -13 15 -11 17 1 34 5 39 10 4 4 -4 4 -18 1 l-25 -7 24 20 c13 12 18 21 12
21 -6 0 -11 5 -11 11 0 6 7 9 15 5 8 -3 14 0 12 7 -1 8 9 11 28 10 22 -2 26 0
15 7 -22 14 -32 12 -68 -16z"/>
<path d="M2820 5770 c0 -5 5 -10 10 -10 6 0 10 5 10 10 0 6 -4 10 -10 10 -5 0
-10 -4 -10 -10z"/>
<path d="M3564 5741 c3 -5 16 -11 28 -14 22 -6 22 -5 4 8 -22 17 -40 20 -32 6z"/>
<path d="M3930 5735 c0 -8 5 -15 10 -15 6 0 10 7 10 15 0 8 -4 15 -10 15 -5 0
-10 -7 -10 -15z"/>
<path d="M3828 5733 c7 -3 16 -2 19 1 4 3 -2 6 -13 5 -11 0 -14 -3 -6 -6z"/>
<path d="M3878 5733 c7 -3 16 -2 19 1 4 3 -2 6 -13 5 -11 0 -14 -3 -6 -6z"/>
<path d="M2629 5703 c-13 -16 -12 -17 4 -4 16 13 21 21 13 21 -2 0 -10 -8 -17
-17z"/>
<path d="M3555 5710 c3 -5 16 -10 28 -9 21 0 21 1 2 9 -28 12 -37 12 -30 0z"/>
<path d="M3750 5710 c-8 -5 -11 -12 -7 -16 4 -4 13 -2 19 4 15 15 7 24 -12 12z"/>
<path d="M3810 5705 c-14 -8 -20 -14 -15 -14 6 0 21 6 35 14 14 8 21 14 15 14
-5 0 -21 -6 -35 -14z"/>
<path d="M3898 5713 c7 -3 16 -2 19 1 4 3 -2 6 -13 5 -11 0 -14 -3 -6 -6z"/>
<path d="M3842 5697 c-20 -12 -16 -13 35 -13 32 -1 49 1 38 3 -11 3 -24 9 -29
14 -13 11 -16 11 -44 -4z"/>
<path d="M3960 5699 c0 -5 5 -7 10 -4 6 3 10 8 10 11 0 2 -4 4 -10 4 -5 0 -10
-5 -10 -11z"/>
<path d="M2570 5644 c0 -8 -4 -13 -9 -9 -13 8 -43 -24 -34 -38 4 -6 0 -8 -10
-4 -10 3 -17 2 -17 -2 0 -5 5 -11 12 -13 6 -2 -3 -14 -20 -27 -35 -25 -41 -19
-15 13 10 12 1 5 -20 -13 -20 -19 -37 -40 -37 -45 0 -6 7 -2 15 8 8 11 18 17
21 13 4 -3 -8 -20 -26 -37 -34 -32 -53 -34 -29 -3 11 15 10 15 -9 -1 -25 -21
-28 -32 -9 -34 6 0 21 -2 32 -5 11 -2 14 -2 8 0 -12 4 14 39 61 81 87 78 126
132 96 132 -6 0 -10 -7 -10 -16z m-15 -33 c-3 -6 -11 -11 -17 -11 -6 0 -6 6 2
15 14 17 26 13 15 -4z"/>
<path d="M2660 5639 c0 -5 5 -7 10 -4 6 3 10 8 10 11 0 2 -4 4 -10 4 -5 0 -10
-5 -10 -11z"/>
<path d="M2610 5613 c-24 -12 -24 -13 -3 -13 12 0 25 5 28 11 11 16 2 17 -25
2z"/>
<path d="M3645 5615 c-5 -2 -23 -6 -40 -10 -24 -5 -27 -8 -14 -15 18 -11 91 9
83 22 -5 8 -11 9 -29 3z"/>
<path d="M3420 5590 c0 -5 11 -10 24 -10 14 0 28 5 31 10 4 6 -7 10 -24 10
-17 0 -31 -4 -31 -10z"/>
<path d="M3687 5586 c-4 -10 -1 -13 8 -9 8 3 12 9 9 14 -7 12 -11 11 -17 -5z"/>
<path d="M3768 5593 c6 -2 18 -2 25 0 6 3 1 5 -13 5 -14 0 -19 -2 -12 -5z"/>
<path d="M3843 5583 c9 -2 23 -2 30 0 6 3 -1 5 -18 5 -16 0 -22 -2 -12 -5z"/>
<path d="M3910 5580 c-12 -8 -9 -10 13 -10 16 0 26 4 22 10 -8 12 -16 12 -35
0z"/>
<path d="M3530 5569 c0 -5 5 -7 10 -4 6 3 10 8 10 11 0 2 -4 4 -10 4 -5 0 -10
-5 -10 -11z"/>
<path d="M3773 5573 c9 -2 23 -2 30 0 6 3 -1 5 -18 5 -16 0 -22 -2 -12 -5z"/>
<path d="M3800 5560 l-45 -7 45 -3 45 -3 -45 -7 -45 -8 45 2 c25 0 43 5 42 10
-2 5 2 13 10 17 7 5 9 8 3 7 -5 0 -30 -4 -55 -8z"/>
<path d="M3580 5550 c0 -5 10 -10 23 -10 18 0 19 2 7 10 -19 13 -30 13 -30 0z"/>
<path d="M3894 5549 c-3 -5 21 -9 52 -9 32 0 55 2 53 4 -10 8 -100 13 -105 5z"/>
<path d="M2530 5540 c0 -5 5 -10 10 -10 7 0 7 -6 0 -19 -13 -26 -13 -31 5 -31
15 0 20 26 9 54 -7 18 -24 22 -24 6z"/>
<path d="M3645 5530 c-3 -5 0 -10 9 -10 8 0 23 -3 33 -6 14 -5 15 -4 4 4 -11
8 -10 11 5 15 12 3 7 5 -13 6 -17 0 -35 -3 -38 -9z"/>
<path d="M3475 5514 c-42 -22 -44 -27 -10 -19 24 5 27 4 15 -5 -12 -10 -10
-11 10 -6 14 4 39 9 55 11 29 5 29 5 -5 -9 -45 -19 -28 -20 30 -2 l45 13 -45
8 c-25 4 -50 11 -56 16 -6 5 -23 2 -39 -7z"/>
<path d="M3628 5503 c7 -3 16 -2 19 1 4 3 -2 6 -13 5 -11 0 -14 -3 -6 -6z"/>
<path d="M2484 5455 c-18 -14 -18 -14 9 -15 17 0 27 5 27 15 0 19 -11 19 -36
0z"/>
<path d="M3475 5460 c-3 -5 -2 -10 4 -10 5 0 13 5 16 10 3 6 2 10 -4 10 -5 0
-13 -4 -16 -10z"/>
<path d="M2345 5429 c-10 -15 3 -25 16 -12 7 7 7 13 1 17 -6 3 -14 1 -17 -5z"/>
<path d="M3120 5431 c0 -11 21 -19 38 -14 21 8 13 23 -13 23 -14 0 -25 -4 -25
-9z"/>
<path d="M3367 5419 c7 -7 15 -10 18 -7 3 3 -2 9 -12 12 -14 6 -15 5 -6 -5z"/>
<path d="M3308 5413 c7 -3 16 -2 19 1 4 3 -2 6 -13 5 -11 0 -14 -3 -6 -6z"/>
<path d="M3267 5399 c-9 -6 -17 -14 -17 -20 0 -12 55 -2 89 16 31 17 23 19
-15 5 -17 -7 -30 -7 -33 -1 -4 6 -13 6 -24 0z"/>
<path d="M2387 5380 c-3 -11 -1 -20 4 -20 5 0 9 9 9 20 0 11 -2 20 -4 20 -2 0
-6 -9 -9 -20z"/>
<path d="M3040 5380 c0 -11 5 -20 10 -20 6 0 10 9 10 20 0 11 -4 20 -10 20 -5
0 -10 -9 -10 -20z"/>
<path d="M2307 5372 c1 -8 3 -16 3 -18 0 -3 5 -2 10 1 6 3 10 11 10 16 0 6 -4
8 -9 5 -5 -4 -11 -3 -14 1 -2 5 -2 2 0 -5z"/>
<path d="M3216 5363 c-4 -5 -26 -8 -49 -8 -39 0 -42 -2 -44 -30 -1 -16 1 -25
5 -20 18 26 92 49 76 24 -4 -8 -1 -8 14 0 13 7 19 17 16 26 -7 17 -8 18 -18 8z
m-59 -19 c-3 -3 -12 -4 -19 -1 -8 3 -5 6 6 6 11 1 17 -2 13 -5z"/>
<path d="M2251 5313 c-17 -21 -31 -42 -31 -47 0 -5 12 7 28 27 15 20 33 36 40
37 6 0 12 5 12 10 0 20 -19 9 -49 -27z"/>
<path d="M2350 5330 c0 -5 5 -10 10 -10 6 0 10 5 10 10 0 6 -4 10 -10 10 -5 0
-10 -4 -10 -10z"/>
<path d="M2285 5310 c-3 -5 -1 -10 4 -10 6 0 11 5 11 10 0 6 -2 10 -4 10 -3 0
-8 -4 -11 -10z"/>
<path d="M3129 5283 l-24 -28 30 25 c17 14 32 26 34 28 2 1 0 2 -6 2 -5 0 -20
-12 -34 -27z"/>
<path d="M2924 5255 c-9 -14 -22 -25 -29 -25 -9 0 -13 -11 -13 -30 1 -24 4
-28 14 -19 8 6 11 15 9 19 -3 5 11 25 31 44 26 25 32 36 21 36 -9 0 -24 -11
-33 -25z"/>
<path d="M3032 5249 c-13 -5 -20 -14 -17 -20 5 -7 13 -5 24 5 26 24 37 19 15
-6 -18 -20 -17 -20 14 2 17 13 32 24 32 24 0 5 -51 1 -68 -5z"/>
<path d="M2180 5221 c-8 -16 -7 -19 8 -16 9 2 20 4 23 4 4 1 10 9 13 18 6 14
3 14 -15 -3 -20 -17 -22 -17 -16 -1 9 23 0 22 -13 -2z"/>
<path d="M2957 5186 c-16 -12 -16 -15 -2 -26 14 -11 20 -9 41 13 13 15 19 22
12 17 -16 -13 -31 -13 -23 0 9 14 -7 12 -28 -4z m23 -16 c0 -5 -5 -10 -11 -10
-5 0 -7 5 -4 10 3 6 8 10 11 10 2 0 4 -4 4 -10z"/>
<path d="M2889 5128 c-1 -13 -1 -28 0 -35 1 -7 -7 -17 -18 -22 -10 -6 -22 -18
-25 -28 -4 -10 11 0 33 22 46 44 48 47 24 38 -15 -5 -16 -3 -5 8 14 16 16 39
2 39 -5 0 -11 -10 -11 -22z"/>
<path d="M2930 5140 c-8 -5 -11 -12 -7 -16 4 -4 13 -2 19 4 15 15 7 24 -12 12z"/>
<path d="M2180 5132 c0 -7 -9 -12 -20 -12 -11 0 -20 -7 -20 -15 0 -22 28 -18
40 6 7 11 9 23 6 27 -3 3 -6 0 -6 -6z"/>
<path d="M2327 5103 c33 -17 51 -13 38 6 -3 6 -21 11 -38 10 l-32 0 32 -16z"/>
<path d="M2774 5109 c-3 -5 -4 -9 -2 -10 26 -6 39 -5 48 6 8 10 4 13 -15 13
-14 0 -28 -4 -31 -9z"/>
<path d="M2220 5090 c0 -5 -10 -10 -22 -10 -22 -1 -22 -1 -4 -12 15 -8 21 -8
24 0 2 7 12 12 23 12 10 0 19 5 19 10 0 6 -9 10 -20 10 -11 0 -20 -4 -20 -10z"/>
<path d="M2840 5090 c-12 -8 -9 -10 13 -10 15 0 27 5 27 10 0 13 -20 13 -40 0z"/>
<path d="M2255 5050 c-4 -6 8 -10 30 -10 22 0 34 4 30 10 -3 6 -17 10 -30 10
-13 0 -27 -4 -30 -10z"/>
<path d="M2720 5045 c0 -8 5 -15 10 -15 6 0 10 7 10 15 0 8 -4 15 -10 15 -5 0
-10 -7 -10 -15z"/>
<path d="M2803 5034 c-10 -22 -10 -25 3 -20 17 7 18 -5 2 -24 -7 -8 -3 -6 10
5 13 11 19 21 14 23 -6 2 -8 12 -5 22 8 29 -10 24 -24 -6z"/>
<path d="M2297 5023 c-4 -3 -2 -12 4 -20 9 -10 15 -10 25 -2 8 6 14 15 14 20
0 10 -34 12 -43 2z"/>
<path d="M2750 4965 c-5 -14 -7 -31 -4 -39 3 -8 1 -17 -5 -21 -6 -3 -9 0 -5 8
7 20 -18 38 -36 26 -13 -8 -11 -12 10 -28 28 -22 21 -36 -18 -36 -22 0 -27 -4
-25 -23 2 -13 -1 -21 -7 -17 -6 4 -7 -1 -3 -11 5 -12 3 -15 -6 -9 -10 6 -11 3
-1 -14 14 -26 33 -17 24 11 -4 14 -3 18 5 13 8 -5 10 2 5 22 -6 27 -6 27 10 8
15 -19 16 -19 9 -1 -4 13 -3 17 5 13 13 -9 51 43 49 67 -1 11 4 21 12 24 9 3
11 0 6 -8 -5 -8 -4 -11 3 -7 12 8 4 47 -9 47 -5 0 -14 -11 -19 -25z"/>
<path d="M2358 4973 c7 -3 16 -2 19 1 4 3 -2 6 -13 5 -11 0 -14 -3 -6 -6z"/>
<path d="M2388 4953 c7 -3 16 -2 19 1 4 3 -2 6 -13 5 -11 0 -14 -3 -6 -6z"/>
<path d="M2465 4950 c3 -5 10 -10 16 -10 5 0 9 5 9 10 0 6 -7 10 -16 10 -8 0
-12 -4 -9 -10z"/>
<path d="M2626 4928 c-4 -23 -2 -36 7 -43 8 -5 12 -17 10 -25 -4 -12 -2 -12 5
-2 5 7 8 30 6 50 -2 20 -3 40 -3 45 -2 20 -19 3 -25 -25z"/>
<path d="M2560 4923 c0 -10 -9 -25 -20 -33 -19 -14 -19 -14 8 -32 29 -19 72
-24 72 -8 0 6 -16 10 -35 10 -40 0 -44 11 -15 38 18 17 19 20 5 32 -13 10 -15
9 -15 -7z"/>
<path d="M3647 4256 c-95 -34 -146 -116 -147 -231 0 -100 15 -142 69 -196 37
-38 57 -49 104 -59 147 -33 273 56 293 208 l7 52 -112 0 -111 0 0 -35 0 -35
55 0 c60 0 65 -6 38 -51 -39 -65 -147 -78 -203 -24 -71 68 -60 231 20 279 52
30 154 14 178 -30 8 -14 13 -14 50 1 23 10 42 21 42 25 0 19 -45 61 -92 84
-59 29 -129 34 -191 12z"/>
<path d="M3181 4228 c-67 -216 -131 -431 -131 -443 0 -11 11 -15 43 -15 42 0
44 1 56 40 l12 40 99 0 99 0 12 -40 c12 -40 13 -40 62 -40 37 0 48 3 44 13 -3
8 -19 61 -37 118 -17 57 -49 161 -71 232 l-40 127 -69 0 -68 0 -11 -32z m116
-175 c17 -59 31 -109 29 -110 -4 -5 -125 -7 -130 -2 -6 5 57 219 64 219 3 0
19 -48 37 -107z"/>
<path d="M4040 4015 l0 -246 46 3 47 3 -2 240 -1 240 -45 3 -45 3 0 -246z"/>
<path d="M4235 4248 c-3 -7 -4 -116 -3 -243 l3 -230 153 -3 153 -3 -3 48 -3
48 -103 0 -102 0 0 198 0 197 -45 0 c-27 0 -48 -5 -50 -12z"/>
<path d="M4600 4015 l0 -245 161 0 160 0 -3 48 -3 47 -110 1 -110 0 -3 52 -3
52 95 0 96 0 0 45 0 44 -92 3 -93 3 -3 53 -3 52 115 0 116 0 0 45 0 45 -160 0
-160 0 0 -245z"/>
<path d="M5319 3202 c-31 -59 -161 -222 -235 -294 -220 -215 -475 -352 -784
-421 -94 -21 -114 -21 -1447 -24 l-1353 -4 0 -324 0 -325 1358 0 1357 0 155
29 c275 53 454 116 695 247 244 132 455 311 648 549 71 87 177 243 177 260 0
8 -146 97 -404 244 -22 13 -66 38 -97 56 l-57 33 -13 -26z m-3410 -988 c29
-24 31 -31 31 -88 0 -83 -24 -108 -110 -114 l-60 -4 0 116 0 116 54 0 c44 0
60 -5 85 -26z m209 4 c3 -15 -4 -18 -47 -18 -48 0 -51 -2 -51 -25 0 -22 4 -25
40 -25 33 0 40 -3 40 -20 0 -17 -7 -20 -40 -20 -36 0 -40 -3 -40 -24 0 -23 5
-25 48 -28 39 -3 47 -6 47 -23 0 -18 -8 -20 -72 -23 l-73 -3 0 116 0 116 72
-3 c60 -2 73 -6 76 -20z m172 2 c0 -17 -7 -20 -50 -20 -47 0 -50 -2 -50 -25 0
-22 4 -25 38 -25 45 0 52 -4 45 -31 -4 -15 -14 -19 -44 -19 l-39 0 0 -45 c0
-41 -2 -45 -25 -45 l-25 0 0 115 0 115 75 0 c68 0 75 -2 75 -20z m70 -95 l0
-115 -25 0 -25 0 0 115 0 115 25 0 25 0 0 -115z m127 48 l38 -68 3 68 c3 64 4
67 28 67 l25 0 -3 -112 c-3 -107 -4 -113 -24 -116 -17 -2 -29 11 -60 63 l-39
67 -5 -64 c-4 -55 -8 -63 -27 -66 -27 -4 -29 5 -25 129 3 97 4 99 27 99 19 0
32 -14 62 -67z m273 47 c0 -17 -7 -20 -50 -20 -47 0 -50 -2 -50 -25 0 -22 4
-25 40 -25 33 0 40 -3 40 -20 0 -17 -7 -20 -40 -20 -36 0 -40 -3 -40 -24 0
-23 5 -25 48 -28 39 -3 47 -6 47 -23 0 -18 -8 -20 -72 -23 l-73 -3 0 116 0
115 75 0 c68 0 75 -2 75 -20z"/>
<path d="M1820 2130 c0 -66 1 -70 23 -70 34 0 47 19 47 65 0 44 -22 75 -53 75
-14 0 -17 -11 -17 -70z"/>
</g>
</svg>
