<?xml version="1.0" standalone="no"?>
<!DOCTYPE svg PUBLIC "-//W3C//DTD SVG 20010904//EN"
 "http://www.w3.org/TR/2001/REC-SVG-20010904/DTD/svg10.dtd">
<svg version="1.0" xmlns="http://www.w3.org/2000/svg"
 width="796.000000pt" height="796.000000pt" viewBox="0 0 796.000000 796.000000"
 preserveAspectRatio="xMidYMid meet">

<g transform="translate(0.000000,796.000000) scale(0.100000,-0.100000)"
fill="#000000" stroke="none">
<path d="M3490 7784 c-261 -95 -506 -185 -545 -198 -243 -86 -2598 -946 -2603
-950 -3 -3 118 -1104 269 -2447 l274 -2441 1475 -834 c811 -460 1507 -853
1545 -874 l71 -39 1544 873 1545 872 281 2445 c154 1344 280 2445 279 2447 -3
4 -3649 1322 -3655 1321 -3 0 -219 -79 -480 -175z m112 -1698 c245 -118 2313
-1128 2371 -1157 l48 -25 -435 -270 c-240 -148 -436 -272 -436 -275 0 -3 193
-100 430 -215 236 -115 430 -211 430 -214 0 -3 -196 -127 -436 -275 -239 -149
-571 -354 -737 -457 -166 -103 -305 -188 -308 -188 -8 0 -1102 537 -1844 905
-308 153 -598 295 -644 317 l-85 39 35 23 c19 12 213 134 432 271 219 136 394
251 390 255 -4 3 -200 100 -434 215 l-427 209 267 167 c146 92 478 300 736
462 259 163 471 296 472 296 1 1 80 -37 175 -83z"/>
</g>
</svg>
