<?xml version="1.0" standalone="no"?>
<!DOCTYPE svg PUBLIC "-//W3C//DTD SVG 20010904//EN"
 "http://www.w3.org/TR/2001/REC-SVG-20010904/DTD/svg10.dtd">
<svg version="1.0" xmlns="http://www.w3.org/2000/svg"
 width="330.000000pt" height="330.000000pt" viewBox="0 0 330.000000 330.000000"
 preserveAspectRatio="xMidYMid meet">
<metadata>
Created by potrace 1.16, written by Peter Selinger 2001-2019
</metadata>
<g transform="translate(0.000000,330.000000) scale(0.100000,-0.100000)"
fill="#000000" stroke="none">
<path d="M1455 3251 c-229 -20 -536 -140 -748 -290 -114 -81 -287 -254 -368
-368 -120 -169 -214 -382 -270 -613 -20 -85 -23 -119 -23 -330 0 -211 3 -245
23 -330 56 -231 150 -444 270 -613 81 -114 254 -287 368 -368 169 -120 382
-214 613 -270 85 -20 119 -23 330 -23 211 0 245 3 330 23 231 56 444 150 613
270 114 81 287 254 368 368 120 169 214 382 270 613 20 85 23 119 23 330 0
211 -3 245 -23 330 -56 231 -150 444 -270 613 -81 114 -254 287 -368 368 -169
120 -387 216 -608 268 -101 23 -384 35 -530 22z m-847 -1325 c58 -30 102 -103
102 -171 l0 -35 -165 0 c-186 0 -187 0 -166 -70 43 -145 221 -160 285 -25 25
53 52 46 34 -8 -44 -132 -235 -159 -322 -45 -47 63 -53 197 -12 275 15 30 49
64 81 81 28 16 131 15 163 -2z m233 -68 c33 -46 66 -83 71 -83 6 0 38 36 72
80 56 72 96 104 96 76 0 -5 -28 -47 -63 -93 -35 -46 -67 -89 -71 -96 -6 -10
34 -71 147 -219 7 -10 3 -13 -14 -13 -19 0 -40 22 -93 95 -38 52 -70 95 -72
95 -2 0 -36 -43 -75 -95 -46 -61 -78 -95 -90 -95 -11 0 -19 2 -19 5 0 3 36 53
80 111 l79 106 -74 99 c-41 54 -75 101 -75 104 0 3 9 5 20 5 13 0 40 -28 81
-82z m339 42 c0 -22 3 -40 6 -40 3 0 16 13 29 29 34 40 75 54 143 49 108 -8
162 -74 169 -208 4 -67 2 -81 -24 -130 -22 -43 -38 -60 -73 -77 -77 -40 -179
-24 -227 35 l-23 27 0 -112 c0 -94 -3 -113 -15 -113 -13 0 -15 38 -15 283 0
156 3 287 7 290 15 16 23 5 23 -33z m450 -2 l0 -42 29 28 c15 15 50 34 76 42
62 18 65 18 65 -6 0 -16 -7 -20 -35 -20 -27 0 -45 -9 -76 -37 -50 -47 -58 -81
-59 -235 0 -98 -3 -118 -15 -118 -13 0 -15 31 -15 215 0 184 2 215 15 215 11
0 15 -11 15 -42z m468 13 c39 -28 68 -80 77 -143 l7 -48 -173 -2 -174 -3 3
-35 c5 -48 35 -103 69 -126 38 -25 129 -25 167 -1 14 10 36 38 48 62 22 45 48
60 48 28 0 -10 -10 -36 -23 -58 -57 -103 -237 -113 -305 -18 -74 104 -43 299
56 353 52 28 154 24 200 -9z m399 9 c53 -32 83 -110 43 -110 -13 0 -20 7 -20
19 0 11 -11 33 -24 48 -22 26 -30 28 -94 28 -61 0 -74 -3 -96 -24 -14 -14 -26
-34 -26 -47 0 -42 31 -63 135 -89 79 -21 106 -32 128 -56 55 -59 22 -155 -61
-179 -120 -33 -229 15 -248 109 -6 27 -4 31 15 31 14 0 21 -6 21 -19 0 -11 11
-33 25 -50 79 -94 275 -40 235 65 -11 29 -70 58 -140 69 -57 9 -116 39 -130
66 -28 52 -8 118 44 143 46 23 153 21 193 -4z m393 5 c37 -19 60 -52 60 -87 0
-40 -23 -35 -39 7 -15 44 -54 65 -118 65 -69 0 -113 -29 -113 -74 0 -48 34
-72 131 -92 103 -23 135 -42 150 -94 17 -57 -5 -104 -64 -130 -113 -52 -267
10 -267 108 0 35 27 26 40 -13 18 -54 63 -80 137 -80 84 0 118 24 118 86 0 37
-4 45 -30 61 -17 9 -64 24 -105 33 -115 24 -162 71 -144 144 14 55 61 81 146
81 42 0 80 -6 98 -15z"/>
<path d="M451 1888 c-37 -25 -65 -66 -76 -110 l-7 -28 156 0 156 0 -6 28 c-20
81 -65 124 -136 130 -43 3 -59 0 -87 -20z"/>
<path d="M1275 1900 c-27 -11 -61 -49 -74 -83 -15 -40 -14 -162 3 -201 46
-110 213 -111 265 -2 45 91 18 234 -51 276 -34 21 -105 26 -143 10z"/>
<path d="M1913 1890 c-34 -20 -73 -85 -73 -120 0 -19 6 -20 150 -20 169 0 166
-2 130 77 -35 78 -134 108 -207 63z"/>
</g>
</svg>
