<?xml version="1.0" standalone="no"?>
<!DOCTYPE svg PUBLIC "-//W3C//DTD SVG 20010904//EN"
 "http://www.w3.org/TR/2001/REC-SVG-20010904/DTD/svg10.dtd">
<svg version="1.0" xmlns="http://www.w3.org/2000/svg"
 width="288.000000pt" height="288.000000pt" viewBox="0 0 288.000000 288.000000"
 preserveAspectRatio="xMidYMid meet">
<metadata>
Created by potrace 1.16, written by Peter Selinger 2001-2019
</metadata>
<g transform="translate(0.000000,288.000000) scale(0.100000,-0.100000)"
fill="#000000" stroke="none">
<path d="M1804 2666 c-146 -78 -188 -86 -429 -84 -160 2 -220 0 -250 -11 -144
-50 -182 -67 -233 -105 -70 -52 -105 -91 -182 -205 -55 -84 -70 -98 -224 -213
-91 -68 -161 -124 -157 -126 4 -1 44 9 87 23 43 13 83 25 87 25 9 0 -35 -59
-82 -109 -17 -18 -30 -34 -29 -37 0 -3 -10 -17 -22 -31 l-22 -25 59 -57 c62
-61 104 -78 148 -61 18 7 36 5 67 -9 47 -20 108 -34 108 -25 0 4 -14 23 -30
44 -47 59 -40 72 24 45 l36 -15 0 36 c0 37 2 38 57 17 9 -4 13 6 13 30 0 20 6
40 13 44 11 7 30 71 73 250 14 55 20 66 57 91 23 15 93 63 155 106 63 43 116
76 118 73 9 -9 -68 -143 -101 -175 -32 -31 -121 -82 -143 -82 -6 0 -21 -13
-34 -29 -26 -30 -44 -85 -51 -158 l-5 -43 54 0 c30 0 64 -6 77 -12 68 -38 115
-107 124 -179 6 -47 4 -51 -31 -84 -25 -24 -47 -35 -67 -35 -24 0 -29 -4 -29
-25 0 -22 -4 -25 -35 -25 -31 0 -35 -3 -35 -25 0 -43 -19 -41 -134 13 -12 6 1
-59 19 -96 21 -40 119 -85 200 -90 67 -4 63 -6 319 158 146 93 213 125 326
154 52 14 140 37 195 51 55 15 140 37 188 50 48 12 89 24 91 26 6 8 73 194 71
197 -1 1 -83 -18 -181 -44 -98 -25 -194 -50 -211 -54 l-33 -8 0 82 0 83 53 10
c28 6 68 16 87 21 57 17 271 73 316 83 38 9 43 15 59 57 10 26 22 51 26 57 5
5 9 16 9 25 0 8 7 28 15 44 9 16 14 30 12 32 -2 3 -43 -7 -109 -25 -58 -16
-384 -101 -440 -115 l-28 -6 0 79 0 80 38 10 c42 10 73 18 117 31 35 10 232
62 360 95 143 37 136 31 173 135 19 50 32 94 29 96 -2 3 -24 0 -48 -6 -24 -6
-69 -17 -99 -25 -30 -8 -71 -18 -90 -24 -19 -5 -87 -23 -150 -39 -63 -17 -149
-40 -190 -51 -100 -27 -106 -27 -88 2 31 48 45 159 20 156 -4 0 -43 -20 -88
-43z"/>
<path d="M583 1111 c-18 -5 -48 -20 -67 -35 -34 -25 -86 -117 -86 -153 -1 -10
-10 -61 -20 -113 -21 -99 -43 -215 -64 -337 l-12 -73 68 0 c76 0 67 -11 88
110 7 36 16 83 20 105 5 22 14 73 21 113 l13 72 47 0 c48 0 48 0 54 38 4 20 9
45 12 56 4 16 0 18 -45 15 l-49 -4 8 30 c5 16 9 31 9 32 0 14 40 33 69 33 36
0 37 1 53 53 9 28 15 53 14 54 -7 7 -107 10 -133 4z"/>
<path d="M2080 1108 c-19 -5 -43 -17 -54 -26 -33 -30 -73 -96 -80 -132 -4 -19
-11 -53 -16 -75 -10 -42 -42 -207 -67 -340 -8 -44 -17 -92 -20 -107 l-5 -28
69 0 70 0 12 73 c7 39 17 86 21 102 5 17 16 75 26 130 l17 100 53 -3 c34 -3
54 -9 58 -18 3 -8 12 -81 21 -162 8 -81 17 -161 21 -179 6 -29 1 -37 -49 -88
-31 -30 -63 -55 -71 -55 -9 0 -16 -3 -16 -6 0 -12 50 -114 56 -114 18 0 78 46
118 92 45 51 136 218 170 313 10 28 29 74 42 103 13 29 24 55 24 58 0 3 6 20
14 37 24 53 46 109 46 118 0 5 -31 9 -68 9 l-68 0 -13 -47 c-22 -77 -41 -137
-51 -158 -5 -11 -15 -40 -22 -65 -12 -42 -13 -35 -16 113 l-3 157 -113 0
c-113 0 -114 0 -108 23 12 48 32 67 73 67 42 0 52 11 63 71 6 35 5 37 -25 43
-41 8 -66 7 -109 -6z"/>
<path d="M1782 1091 c-54 -46 -32 -131 33 -131 46 0 75 32 75 81 0 62 -62 90
-108 50z"/>
<path d="M1541 1024 c-36 -8 -66 -16 -68 -18 -2 -2 -7 -23 -11 -47 -7 -40 -10
-44 -39 -47 -25 -3 -32 -8 -37 -34 -12 -62 -8 -78 20 -78 24 0 26 -3 20 -27
-16 -73 -39 -203 -43 -248 -9 -90 35 -135 131 -135 56 0 68 10 76 64 7 45 6
46 -21 46 -15 0 -32 7 -37 16 -9 15 -1 100 18 184 5 25 12 57 15 73 5 26 7 27
75 27 l70 0 -6 -32 c-3 -18 -8 -40 -11 -48 -2 -8 -11 -53 -20 -100 -8 -47 -18
-105 -23 -130 -18 -93 -19 -91 57 -88 l67 3 12 70 c7 39 17 93 22 120 6 28 17
88 25 135 9 47 18 92 20 100 3 8 8 30 11 48 l6 32 -141 0 -141 0 6 28 c12 61
18 102 15 101 -2 -1 -33 -7 -68 -15z"/>
<path d="M782 884 c-37 -18 -64 -42 -91 -77 -58 -80 -75 -136 -76 -247 0 -83
3 -99 23 -127 30 -42 77 -52 136 -29 24 9 48 27 54 39 10 21 11 20 11 -10 l1
-33 60 0 c50 0 60 3 61 18 1 43 19 175 34 252 45 230 44 217 18 229 -13 6 -59
11 -101 11 -62 -1 -88 -6 -130 -26z m104 -91 c-3 -10 -12 -52 -20 -93 -28
-137 -53 -190 -92 -190 -23 0 -24 3 -24 69 0 85 30 171 72 206 35 30 72 34 64
8z"/>
<path d="M1158 890 c-58 -31 -83 -74 -83 -145 0 -48 5 -67 26 -97 14 -21 28
-35 31 -32 10 9 48 -48 48 -72 0 -14 -10 -30 -25 -40 -20 -13 -30 -14 -60 -4
-47 16 -56 11 -71 -38 -11 -40 -11 -43 10 -55 31 -18 155 -14 193 6 67 35 105
118 85 186 -11 35 -72 125 -72 105 0 -4 -7 1 -15 12 -8 10 -15 31 -15 47 0 35
37 52 85 38 32 -8 33 -8 44 29 22 74 15 80 -82 80 -41 -1 -74 -7 -99 -20z"/>
</g>
</svg>
