<?xml version="1.0" standalone="no"?>
<!DOCTYPE svg PUBLIC "-//W3C//DTD SVG 20010904//EN"
 "http://www.w3.org/TR/2001/REC-SVG-20010904/DTD/svg10.dtd">
<svg version="1.0" xmlns="http://www.w3.org/2000/svg"
 width="820.000000pt" height="820.000000pt" viewBox="0 0 820.000000 820.000000"
 preserveAspectRatio="xMidYMid meet">

<g transform="translate(0.000000,820.000000) scale(0.100000,-0.100000)"
fill="#000000" stroke="none">
<path d="M4468 5672 l-1118 -646 0 -429 0 -429 53 30 c28 16 364 210 746 431
382 220 696 401 698 401 2 0 2 -197 1 -437 l-3 -437 -737 -425 c-405 -234
-739 -428 -742 -431 -7 -8 715 -424 734 -424 9 0 350 193 758 429 l742 429 0
1293 c0 711 -3 1293 -7 1292 -5 0 -511 -291 -1125 -647z"/>
<path d="M6718 6107 l-367 -212 -1 -428 c0 -274 4 -427 10 -425 5 2 174 98
374 213 l365 210 1 428 c0 235 -3 427 -7 427 -5 -1 -173 -96 -375 -213z"/>
<path d="M6725 4376 l-370 -214 -3 -435 -2 -435 -750 -433 -750 -433 0 -429 0
-429 59 34 c33 18 539 310 1125 648 l1065 615 1 863 c0 474 -1 862 -2 862 -2
0 -169 -96 -373 -214z"/>
</g>
</svg>
