<?xml version="1.0" standalone="no"?>
<!DOCTYPE svg PUBLIC "-//W3C//DTD SVG 20010904//EN"
 "http://www.w3.org/TR/2001/REC-SVG-20010904/DTD/svg10.dtd">
<svg version="1.0" xmlns="http://www.w3.org/2000/svg"
 width="192.000000pt" height="192.000000pt" viewBox="0 0 192.000000 192.000000"
 preserveAspectRatio="xMidYMid meet">

<g transform="translate(0.000000,192.000000) scale(0.100000,-0.100000)"
fill="#000000" stroke="none">
<path d="M565 1631 c-242 -140 -364 -216 -372 -232 -19 -37 -18 -840 1 -877
20 -39 719 -442 766 -442 48 0 746 403 766 442 21 40 21 836 0 876 -21 40
-718 442 -767 442 -26 0 -119 -49 -394 -209z m724 -77 c168 -96 316 -186 329
-200 22 -25 22 -26 22 -387 0 -268 -4 -368 -13 -386 -15 -30 -629 -390 -666
-391 -28 0 -626 341 -659 376 -22 25 -22 25 -22 394 0 368 0 369 22 394 32 35
627 376 657 376 14 0 162 -79 330 -176z"/>
<path d="M649 1524 c-167 -96 -309 -180 -316 -186 -19 -15 -19 -741 0 -756 7
-6 149 -90 316 -186 250 -144 307 -173 325 -166 25 9 594 336 614 352 9 8 12
96 12 378 0 282 -3 370 -12 378 -20 16 -589 343 -614 352 -18 7 -75 -22 -325
-166z m329 -133 c8 -22 7 -34 -2 -46 -11 -16 -14 -14 -25 13 -13 31 -7 77 9
67 4 -3 13 -18 18 -34z m-43 -21 c8 -26 -4 -48 -16 -29 -12 19 -11 49 0 49 5
0 12 -9 16 -20z m107 -115 c-2 -33 -13 -81 -24 -107 l-20 -48 -53 0 c-51 0
-53 1 -70 35 -21 45 -40 147 -32 169 6 14 21 16 104 14 l98 -3 -3 -60z m-202
-85 c0 -6 -88 -10 -245 -10 -157 0 -245 4 -245 10 0 6 88 10 245 10 157 0 245
-4 245 -10z m730 0 c0 -6 -93 -10 -260 -10 -167 0 -260 4 -260 10 0 6 93 10
260 10 167 0 260 -4 260 -10z m-1134 -140 c15 -22 29 -40 33 -40 3 0 17 18 31
40 18 29 31 40 45 38 18 -3 20 -12 23 -100 3 -92 2 -98 -17 -98 -18 0 -20 8
-23 63 l-3 62 -25 -37 c-14 -21 -28 -38 -32 -38 -3 0 -17 17 -30 38 l-23 37
-3 -62 c-3 -55 -6 -63 -22 -63 -19 0 -20 7 -20 100 0 93 1 100 20 100 12 0 30
-16 46 -40z m353 26 c48 -25 63 -83 36 -136 -19 -36 -43 -50 -90 -50 -47 0
-81 24 -95 65 -15 44 -4 80 32 110 33 28 75 32 117 11z m271 -4 c20 -16 21
-19 6 -31 -13 -11 -20 -11 -28 -3 -32 32 -98 0 -98 -46 0 -50 52 -78 100 -52
13 7 21 6 29 -4 17 -20 -23 -46 -72 -46 -29 0 -46 7 -68 29 -63 64 -20 171 69
171 23 0 49 -7 62 -18z m120 -22 l0 -40 40 0 40 0 0 40 c0 33 3 40 20 40 19 0
20 -7 20 -100 0 -93 -1 -100 -20 -100 -17 0 -20 7 -20 40 l0 40 -40 0 -40 0 0
-40 c0 -33 -3 -40 -20 -40 -19 0 -20 7 -20 100 0 93 1 100 20 100 17 0 20 -7
20 -40z m341 -54 c22 -49 39 -93 39 -98 0 -17 -39 -7 -45 12 -9 29 -87 29
-107 -1 -7 -12 -21 -20 -30 -18 -15 3 -11 18 25 102 54 126 65 126 118 3z m49
-166 c0 -7 -210 -10 -610 -10 -400 0 -610 3 -610 10 0 7 210 10 610 10 400 0
610 -3 610 -10z"/>
<path d="M880 1239 l0 -40 65 3 65 3 0 37 0 38 -65 0 -65 0 0 -41z"/>
<path d="M928 1133 c12 -2 30 -2 40 0 9 3 -1 5 -23 4 -22 0 -30 -2 -17 -4z"/>
<path d="M698 1019 c-23 -13 -24 -81 -3 -99 21 -17 64 -16 82 3 19 18 20 72 2
93 -13 16 -56 18 -81 3z"/>
<path d="M1451 987 c-15 -38 -15 -37 14 -37 28 0 30 5 10 40 l-13 25 -11 -28z"/>
</g>
</svg>
