<?xml version="1.0" standalone="no"?>
<!DOCTYPE svg PUBLIC "-//W3C//DTD SVG 20010904//EN"
 "http://www.w3.org/TR/2001/REC-SVG-20010904/DTD/svg10.dtd">
<svg version="1.0" xmlns="http://www.w3.org/2000/svg"
 width="2800.000000pt" height="2530.000000pt" viewBox="0 0 2800.000000 2530.000000"
 preserveAspectRatio="xMidYMid meet">

<g transform="translate(0.000000,2530.000000) scale(0.100000,-0.100000)"
fill="#000000" stroke="none">
<path d="M13580 25274 c-700 -52 -1421 -229 -2090 -513 -158 -68 -540 -253
-660 -321 -314 -177 -604 -366 -867 -564 -1292 -972 -2277 -2333 -2860 -3956
-112 -311 -237 -696 -306 -945 -14 -49 -33 -117 -42 -150 -25 -87 -103 -399
-120 -475 -7 -36 -26 -119 -40 -185 -135 -620 -230 -1331 -267 -2000 -16 -295
-16 -1054 0 -1345 93 -1670 482 -3288 1185 -4930 104 -243 123 -286 260 -575
148 -313 392 -778 600 -1145 l65 -114 -39 -71 c-92 -168 -160 -365 -201 -580
-32 -171 -32 -456 0 -633 71 -392 236 -719 500 -993 169 -176 326 -290 537
-393 266 -130 478 -182 780 -193 305 -11 603 52 880 187 614 297 1023 904
1064 1578 35 576 -165 1095 -575 1493 -303 293 -697 478 -1112 520 -102 11
-389 7 -477 -6 -38 -6 -41 -5 -61 32 -12 21 -55 97 -96 168 -41 72 -98 175
-128 230 -29 55 -56 105 -60 110 -34 45 -355 710 -460 955 -712 1649 -1053
3373 -1026 5195 8 603 32 984 91 1451 177 1399 607 2644 1303 3775 200 326
524 772 733 1009 235 268 518 511 854 734 233 156 302 196 565 333 377 196
876 385 1325 503 66 17 137 36 158 41 268 71 744 143 1070 161 546 31 1114
-59 1627 -259 149 -58 446 -203 580 -283 876 -522 1621 -1379 2205 -2536 264
-524 459 -1024 650 -1669 111 -377 227 -961 256 -1300 7 -77 13 -141 14 -143
1 -1 58 -16 126 -33 68 -16 144 -36 169 -44 25 -7 97 -28 160 -45 262 -72 659
-196 1018 -317 123 -41 225 -73 228 -70 6 6 -28 386 -57 622 -104 873 -292
1709 -554 2465 -315 910 -756 1758 -1278 2459 -1214 1631 -2906 2626 -4702
2765 -240 19 -675 19 -925 0z"/>
<path d="M12245 17449 c-422 -40 -835 -238 -1145 -549 -474 -474 -660 -1156
-495 -1810 131 -518 496 -974 974 -1216 276 -139 547 -204 856 -205 515 -2
991 194 1348 556 144 146 259 304 352 487 l55 106 63 6 c174 16 662 24 967 16
816 -22 1573 -116 2447 -305 347 -74 901 -232 1313 -373 1317 -451 2655 -1173
3735 -2016 545 -425 1092 -958 1521 -1481 487 -594 912 -1282 1224 -1980 301
-673 455 -1204 532 -1835 19 -160 22 -232 22 -535 0 -369 -12 -516 -64 -795
-113 -599 -337 -1136 -707 -1700 -823 -1252 -1990 -1994 -3475 -2210 -314 -45
-464 -54 -903 -55 -450 0 -608 10 -985 60 -346 47 -828 142 -1065 211 -27 8
-122 34 -210 59 -317 90 -726 237 -996 357 l-56 25 -89 -80 c-264 -237 -736
-615 -1337 -1071 l-98 -75 43 -19 c359 -162 482 -213 903 -377 258 -100 772
-260 1115 -346 801 -201 1514 -291 2305 -292 448 0 924 33 1255 87 47 8 108
17 135 21 184 24 696 141 966 220 606 178 1292 476 1799 783 842 509 1541
1139 2056 1852 346 479 580 958 749 1534 44 150 54 192 101 401 103 462 151
1046 133 1615 -8 264 -10 281 -40 560 -76 694 -267 1444 -535 2095 -95 232
-110 268 -174 405 -242 518 -548 1035 -898 1515 -483 664 -1176 1415 -1842
2000 -1470 1290 -3233 2239 -5180 2789 -208 59 -513 138 -620 161 -36 8 -126
28 -200 45 -379 87 -930 182 -1385 239 -706 90 -1354 126 -2145 119 l-458 -3
-23 45 c-35 65 -123 195 -186 272 -77 95 -265 272 -360 341 -379 271 -826 390
-1298 346z"/>
<path d="M4703 13289 c-470 -354 -855 -691 -1268 -1110 -528 -535 -924 -1035
-1297 -1634 -203 -327 -444 -792 -574 -1107 -64 -155 -79 -192 -124 -313 -58
-156 -151 -431 -179 -535 -154 -555 -228 -958 -278 -1510 -25 -277 -25 -885 0
-1175 91 -1051 375 -2001 842 -2815 390 -681 955 -1281 1661 -1763 988 -675
2205 -1100 3539 -1236 561 -58 1292 -54 1865 9 377 41 675 91 1110 184 63 14
149 32 190 41 98 21 552 132 610 150 25 7 97 27 160 45 63 17 142 40 175 50
33 10 101 30 150 45 377 113 962 323 1310 471 61 25 135 56 165 69 266 110
817 378 1129 550 546 298 1112 662 1576 1013 253 191 389 300 580 462 672 571
1261 1178 1786 1840 600 757 1081 1511 1544 2422 l70 136 55 7 c315 39 671
198 940 421 321 265 543 633 639 1059 66 287 48 663 -45 960 -169 542 -582
988 -1104 1195 -30 12 -66 26 -79 31 -58 24 -246 69 -351 85 -150 23 -394 23
-552 0 -612 -89 -1147 -479 -1424 -1036 -132 -266 -194 -535 -194 -840 0 -475
173 -923 494 -1276 l56 -62 -109 -203 c-839 -1580 -1998 -2873 -3561 -3970
-397 -279 -944 -623 -1345 -844 -27 -16 -86 -48 -130 -73 -1255 -709 -2464
-1125 -3755 -1292 -411 -53 -990 -79 -1380 -61 -1079 48 -1852 224 -2575 584
-816 406 -1429 990 -1892 1802 -381 668 -584 1269 -670 1985 -25 208 -25 792
0 1008 116 1019 530 2005 1248 2972 446 602 1067 1239 1609 1651 l34 26 -57
184 c-69 227 -93 308 -150 524 -73 274 -214 859 -233 968 -3 20 -10 40 -14 42
-5 3 -93 -58 -197 -136z"/>
</g>
</svg>
