<?xml version="1.0" standalone="no"?>
<!DOCTYPE svg PUBLIC "-//W3C//DTD SVG 20010904//EN"
 "http://www.w3.org/TR/2001/REC-SVG-20010904/DTD/svg10.dtd">
<svg version="1.0" xmlns="http://www.w3.org/2000/svg"
 width="256.000000pt" height="256.000000pt" viewBox="0 0 256.000000 256.000000"
 preserveAspectRatio="xMidYMid meet">
<metadata>
Created by potrace 1.16, written by Peter Selinger 2001-2019
</metadata>
<g transform="translate(0.000000,256.000000) scale(0.100000,-0.100000)"
fill="#000000" stroke="none">
<path d="M719 2452 c-35 -36 -56 -60 -46 -53 9 8 17 9 17 3 0 -15 -26 -33 -35
-24 -5 4 -5 2 -2 -5 8 -14 -56 -67 -106 -88 -20 -8 -68 -20 -109 -26 -62 -9
-96 -20 -152 -47 -5 -3 -5 1 0 9 7 12 5 12 -9 1 -9 -8 -15 -19 -14 -25 1 -7
-4 -11 -11 -9 -8 1 -11 -2 -8 -7 3 -5 -1 -22 -9 -38 -13 -25 -24 -128 -25
-222 0 -16 -28 -52 -89 -115 -48 -50 -93 -100 -99 -111 -7 -12 -12 -14 -12 -6
0 7 39 55 87 105 l87 91 -88 -86 -88 -86 -2 -99 c-1 -71 4 -116 16 -157 23
-77 23 -124 -3 -171 -11 -21 -18 -40 -16 -42 2 -2 13 16 25 40 27 54 28 96 2
178 -11 34 -20 70 -19 78 0 8 12 -21 25 -65 31 -97 28 -153 -9 -212 -29 -46
-36 -117 -16 -155 8 -15 8 -19 0 -14 -37 23 38 -81 100 -139 32 -30 28 -24
-14 23 -31 35 -62 73 -68 85 -6 12 2 6 17 -13 16 -19 48 -55 71 -79 24 -25 41
-51 38 -58 -2 -8 -1 -12 4 -9 9 6 31 -37 31 -62 0 -9 14 -46 30 -80 17 -35 27
-68 24 -73 -3 -5 0 -8 7 -7 6 2 14 -3 17 -11 3 -9 0 -11 -9 -6 -8 5 -11 4 -6
-1 5 -5 14 -9 19 -9 6 0 13 -6 16 -14 3 -9 0 -11 -9 -6 -8 5 -11 4 -6 -1 5 -5
12 -9 16 -9 5 0 35 -34 68 -75 68 -85 168 -182 257 -247 34 -25 61 -49 61 -53
0 -5 4 -12 9 -17 5 -5 6 -3 2 5 -10 17 -3 15 38 -9 20 -12 33 -26 29 -32 -3
-6 -1 -7 5 -3 6 4 33 -4 59 -17 26 -13 71 -32 100 -42 29 -10 50 -22 47 -26
-2 -4 33 -20 78 -35 82 -28 87 -28 368 -30 260 -2 291 -1 353 17 38 11 67 22
64 25 -2 3 -16 0 -31 -6 -15 -5 -33 -10 -39 -9 -7 0 12 9 42 20 30 10 57 17
59 14 3 -3 -1 -5 -8 -5 -7 0 -11 -2 -8 -5 8 -8 39 6 33 15 -2 4 17 15 43 25
26 10 66 28 90 42 23 13 47 21 52 18 6 -4 9 -1 8 6 -2 6 3 14 11 17 9 3 11 0
6 -8 -5 -9 -4 -11 4 -6 6 4 9 11 6 15 -2 5 14 21 36 36 62 41 206 182 251 247
23 32 43 58 45 58 2 0 1 -5 -3 -12 -4 -7 -3 -8 4 -4 6 4 9 12 6 19 -2 7 3 21
11 32 15 19 16 19 5 -5 -27 -61 24 18 61 96 40 81 43 112 10 109 -23 -1 -81
-43 -78 -57 1 -6 -4 -13 -12 -16 -9 -3 -11 0 -6 9 5 8 4 11 -1 6 -5 -5 -9 -13
-9 -19 0 -6 -33 -28 -73 -50 -54 -30 -76 -37 -86 -29 -9 8 -18 7 -32 -5 -18
-14 -18 -15 6 -9 24 6 24 5 -3 -10 -15 -9 -31 -13 -36 -10 -5 3 -11 1 -13 -4
-1 -4 -14 -12 -28 -16 -14 -4 1 11 35 35 33 23 85 63 115 87 l55 45 -46 -45
c-34 -33 -43 -47 -32 -51 15 -6 73 20 108 49 11 9 -5 2 -36 -15 -31 -16 -60
-30 -64 -30 -5 0 10 19 33 43 23 24 40 46 36 50 -3 3 18 30 47 59 30 29 43 44
30 33 l-24 -20 23 33 c24 32 36 42 25 20 -4 -7 1 -4 10 7 10 11 33 54 53 95
l36 75 4 191 c3 168 2 192 -12 197 -12 5 -25 -11 -51 -63 -19 -39 -33 -70 -30
-70 2 0 20 30 39 68 19 37 35 64 36 59 1 -18 -72 -147 -80 -142 -6 4 -7 -1 -3
-11 5 -13 3 -15 -7 -9 -9 5 -11 4 -6 -3 8 -14 -34 -77 -98 -147 -45 -48 -46
-49 -25 -12 12 21 36 71 54 112 18 41 36 71 40 67 5 -4 5 -2 1 5 -9 16 4 69
14 53 9 -14 18 18 30 103 9 60 -3 167 -21 196 -7 12 -8 8 -4 -14 4 -25 3 -23
-10 9 -8 22 -13 42 -10 44 3 3 5 -1 5 -8 0 -7 3 -10 7 -7 3 4 -1 15 -11 25 -9
9 -40 52 -67 95 -49 75 -77 100 -64 55 7 -23 7 -23 -8 -3 -15 18 -15 16 -1
-23 16 -49 30 -149 38 -267 3 -51 2 -67 -3 -45 l-8 35 -2 -31 c-4 -100 -90
-306 -177 -424 -26 -36 -40 -59 -31 -51 9 7 17 9 17 4 0 -13 -35 -45 -42 -38
-3 3 -11 -3 -19 -12 -13 -16 -12 -17 3 -4 10 7 18 9 18 4 0 -12 -45 -55 -51
-48 -3 2 -23 -14 -45 -38 l-39 -42 41 35 c22 19 16 12 -13 -17 -55 -54 -108
-91 -88 -62 6 8 2 6 -8 -4 -14 -16 -15 -22 -5 -35 10 -12 31 -13 108 -9 52 3
106 9 120 12 l25 7 -25 -22 c-14 -11 -75 -45 -135 -75 -102 -51 -164 -71 -355
-113 l-45 -10 55 3 55 4 -52 -10 c-29 -6 -53 -14 -53 -19 0 -4 25 -25 55 -45
30 -21 55 -40 55 -42 0 -2 -4 -1 -10 2 -5 3 -10 4 -10 1 0 -3 24 -19 53 -36
l52 -30 -55 -2 c-49 -1 -46 -2 25 -8 l80 -6 -80 -2 c-44 -1 -109 5 -145 12
-91 20 -182 55 -174 68 4 6 2 8 -3 5 -18 -11 -137 50 -219 112 -44 33 -115 94
-159 136 -72 68 -69 67 26 -17 101 -88 199 -164 199 -155 0 3 -26 24 -57 48
-32 24 -99 80 -150 126 -77 70 -93 80 -103 68 -18 -21 -7 -88 24 -147 30 -57
31 -62 14 -52 -8 4 -10 3 -5 -2 5 -5 12 -9 16 -9 4 0 29 -27 56 -60 27 -33 38
-51 26 -40 -13 11 -25 18 -27 15 -2 -3 -12 3 -24 12 -11 10 -20 15 -20 12 0
-3 -33 28 -72 68 -44 44 -51 50 -18 14 36 -39 43 -50 20 -30 -100 82 -221 271
-234 364 -4 24 0 18 13 -21 23 -71 74 -167 112 -210 26 -29 25 -27 -6 17 -75
109 -125 264 -125 386 0 80 26 183 64 260 19 37 32 68 30 68 -2 0 -17 -24 -34
-52 -16 -29 -30 -49 -30 -44 0 26 73 130 134 192 77 76 175 136 287 175 l67
23 108 -51 c93 -43 141 -63 164 -68 66 -13 147 -41 133 -46 -38 -13 172 -44
302 -44 153 0 224 15 266 56 17 16 34 27 39 24 11 -7 50 43 50 64 -1 9 -7 2
-14 -15 -8 -18 -18 -34 -24 -38 -5 -3 -1 11 10 32 36 69 7 184 -78 306 -33 49
-33 49 -4 16 33 -36 73 -108 96 -170 7 -19 13 -28 13 -19 1 9 -17 53 -40 98
-33 68 -61 103 -152 195 -62 62 -128 123 -147 135 -33 21 -32 20 5 -10 22 -18
74 -67 115 -109 62 -61 64 -64 10 -14 -36 34 -90 81 -120 104 -30 23 -55 46
-55 50 0 5 -4 12 -9 17 -5 5 -6 2 -1 -6 5 -9 3 -12 -6 -9 -8 3 -14 10 -14 15
0 6 -4 15 -9 20 -5 5 -6 2 -1 -6 5 -9 3 -12 -6 -9 -8 3 -13 10 -12 16 2 7 -4
9 -14 5 -12 -5 -14 -3 -8 7 5 8 4 11 -3 6 -6 -4 -33 4 -59 17 -26 14 -87 37
-135 53 -48 15 -83 31 -77 35 21 13 -129 44 -266 54 -73 6 -95 12 -115 30 -51
46 -77 52 -226 53 l-141 1 -64 -67z"/>
</g>
</svg>
