<?xml version="1.0" standalone="no"?>
<!DOCTYPE svg PUBLIC "-//W3C//DTD SVG 20010904//EN"
 "http://www.w3.org/TR/2001/REC-SVG-20010904/DTD/svg10.dtd">
<svg version="1.0" xmlns="http://www.w3.org/2000/svg"
 width="512.000000pt" height="512.000000pt" viewBox="0 0 512.000000 512.000000"
 preserveAspectRatio="xMidYMid meet">

<g transform="translate(0.000000,512.000000) scale(0.100000,-0.100000)"
fill="#000000" stroke="none">
<path d="M388 5104 c-185 -44 -329 -189 -373 -376 -22 -95 -22 -4241 0 -4336
45 -189 188 -332 377 -377 55 -13 347 -15 2164 -15 1380 0 2120 3 2155 10 190
36 348 189 394 382 22 95 22 4241 0 4336 -46 193 -204 346 -394 382 -35 7
-773 10 -2160 9 -1759 -1 -2115 -3 -2163 -15z m4022 -2392 c52 -11 118 -29
145 -39 l50 -19 3 -232 c1 -128 0 -232 -3 -232 -3 0 -48 20 -99 45 -314 153
-712 131 -791 -45 -26 -58 -17 -139 21 -188 46 -57 155 -125 309 -193 198 -87
289 -134 373 -192 142 -98 231 -219 268 -367 25 -98 15 -302 -18 -391 -70
-188 -201 -308 -413 -378 -149 -49 -280 -64 -505 -58 -219 5 -344 26 -490 80
l-85 32 -3 257 -2 258 52 -40 c237 -179 604 -242 815 -139 38 18 74 45 90 66
25 32 28 45 28 108 0 63 -4 77 -29 114 -54 77 -147 134 -396 241 -204 88 -289
140 -391 240 -93 92 -135 163 -164 275 -19 76 -19 241 0 323 61 259 296 436
650 491 105 17 476 6 585 -17z m-1440 -227 l0 -205 -320 0 -320 0 0 -915 0
-915 -255 0 -255 0 -2 913 -3 912 -317 3 -318 2 0 205 0 205 895 0 895 0 0
-205z"/>
</g>
</svg>
