<?xml version="1.0" encoding="UTF-8"?>
<svg width="300px" height="301px" viewBox="0 0 300 301" version="1.1" xmlns="http://www.w3.org/2000/svg" xmlns:xlink="http://www.w3.org/1999/xlink">
    <!-- Generator: Sketch 52.6 (67491) - http://www.bohemiancoding.com/sketch -->
    <title>Slice</title>
    <desc>Created with Sketch.</desc>
    <g id="Page-1" stroke="none" stroke-width="1" fill="none" fill-rule="evenodd">
        <g id="app-logo" transform="translate(0.000000, 0.675000)" fill="#48A1D0">
            <g id="wp">
                <path d="M149.999955,0.299416168 C67.3225599,0.299416168 0.299505988,67.3224701 0.299505988,149.999865 C0.299505988,232.67726 67.3225599,299.700763 149.999955,299.700763 C232.67735,299.700763 299.700404,232.67726 299.700404,149.999865 C299.700404,67.3224701 232.67735,0.299416168 149.999955,0.299416168 M149.999955,9.2814521 C169.001003,9.2814521 187.428548,13.0009132 204.771063,20.3360928 C213.10729,23.861991 221.148458,28.2268114 228.670913,33.3083982 C236.124207,38.3437275 243.132889,44.1268114 249.502949,50.4968713 C255.873009,56.8669311 261.656093,63.8760629 266.691422,71.3289072 C271.773458,78.8513623 276.137829,86.8925299 279.663728,95.2287575 C286.999356,112.571272 290.718368,130.999266 290.718368,149.999865 C290.718368,169.000913 286.999356,187.428458 279.663728,204.770973 C276.137829,213.107201 271.773458,221.148368 266.691422,228.670823 C261.656093,236.124117 255.873009,243.132799 249.502949,249.502859 C243.132889,255.872919 236.124207,261.656003 228.670913,266.691332 C221.148458,271.773368 213.10729,276.13774 204.771063,279.663638 C187.428548,286.999266 169.001003,290.718728 149.999955,290.718728 C130.999356,290.718728 112.571362,286.999266 95.2288473,279.663638 C86.8926198,276.13774 78.8514521,271.773368 71.328997,266.691332 C63.8761527,261.656003 56.867021,255.872919 50.4969611,249.502859 C44.1269012,243.132799 38.3438174,236.124117 33.308488,228.670823 C28.2269012,221.148368 23.8620808,213.107201 20.3361826,204.770973 C13.001003,187.428458 9.28154192,169.000913 9.28154192,149.999865 C9.28154192,130.999266 13.001003,112.571272 20.3361826,95.2287575 C23.8620808,86.8925299 28.2269012,78.8513623 33.308488,71.3289072 C38.3438174,63.8760629 44.1269012,56.8669311 50.4969611,50.4968713 C56.867021,44.1268114 63.8761527,38.3437275 71.328997,33.3083982 C78.8514521,28.2268114 86.8926198,23.861991 95.2288473,20.3360928 C112.571362,13.0009132 130.999356,9.2814521 149.999955,9.2814521" id="Fill-3"></path>
                <path d="M259.472695,90.1492814 C260.008473,94.1220359 260.311168,98.3844611 260.311168,102.976078 C260.311168,115.630419 257.940359,129.861108 250.822096,147.657216 L212.720749,257.820539 C249.808922,236.198084 274.750689,196.017395 274.750689,149.99524 C274.750689,128.306317 269.207874,107.916198 259.472695,90.1492814 Z M152.191707,160.907066 L114.756377,269.667395 C125.936317,272.956617 137.755778,274.750329 150.00009,274.750329 C164.527186,274.750329 178.463713,272.242994 191.429281,267.677425 C191.095599,267.143892 190.787964,266.577126 190.534222,265.958263 L152.191707,160.907066 Z M234.217006,143.703772 C234.217006,128.281617 228.677335,117.607365 223.933024,109.300329 C217.608772,99.019491 211.678383,90.3217365 211.678383,80.0413473 C211.678383,68.5757784 220.373443,57.9015269 232.627635,57.9015269 C233.181377,57.9015269 233.705479,57.967994 234.243054,58.0021257 C212.047994,37.6658982 182.477335,25.2495808 150.00009,25.2495808 C106.41521,25.2495808 68.074491,47.6126048 45.7676048,81.4757784 C48.6966467,81.5687425 51.4563772,81.6271257 53.7961976,81.6271257 C66.8417066,81.6271257 87.0454491,80.0413473 87.0454491,80.0413473 C93.7667066,79.647485 94.5611677,89.5272754 87.8430539,90.3217365 C87.8430539,90.3217365 81.0827246,91.113503 73.5665569,91.5069162 L118.993204,226.634461 L146.297246,144.758713 L126.862365,91.5069162 C120.141108,91.113503 113.778234,90.3217365 113.778234,90.3217365 C107.053383,89.9247305 107.841108,79.647485 114.569551,80.0413473 C114.569551,80.0413473 135.166707,81.6271257 147.424042,81.6271257 C160.469551,81.6271257 180.676437,80.0413473 180.676437,80.0413473 C187.401287,79.647485 188.192605,89.5272754 181.471347,90.3217365 C181.471347,90.3217365 174.704281,91.113503 167.194401,91.5069162 L212.277934,225.60512 L225.147395,184.826228 C230.86491,167.004521 234.217006,154.378024 234.217006,143.703772 Z M25.249491,149.99524 C25.249491,199.371737 53.9426048,242.046737 95.5608683,262.265749 L36.0517365,99.2265269 C29.1297305,114.73985 25.249491,131.909012 25.249491,149.99524 Z" id="Fill-5"></path>
            </g>
        </g>
    </g>
</svg>