<?xml version="1.0" encoding="UTF-8"?>
<!-- Do not edit this file with editors other than draw.io -->
<!DOCTYPE svg PUBLIC "-//W3C//DTD SVG 1.1//EN" "http://www.w3.org/Graphics/SVG/1.1/DTD/svg11.dtd">
<svg xmlns="http://www.w3.org/2000/svg" style="background: transparent; background-color: transparent; color-scheme: light dark;" xmlns:xlink="http://www.w3.org/1999/xlink" version="1.1" width="449px" height="646px" viewBox="-0.5 -0.5 449 646" content="&lt;mxfile host=&quot;app.diagrams.net&quot; agent=&quot;Mozilla/5.0 (Windows NT 10.0; Win64; x64) AppleWebKit/537.36 (KHTML, like Gecko) Chrome/138.0.0.0 Safari/537.36&quot; version=&quot;28.0.6&quot;&gt;&#10;  &lt;diagram name=&quot;Page-1&quot; id=&quot;tfkwudHtpknjOU73y2Bu&quot;&gt;&#10;    &lt;mxGraphModel dx=&quot;1426&quot; dy=&quot;1895&quot; grid=&quot;1&quot; gridSize=&quot;10&quot; guides=&quot;1&quot; tooltips=&quot;1&quot; connect=&quot;1&quot; arrows=&quot;1&quot; fold=&quot;1&quot; page=&quot;1&quot; pageScale=&quot;1&quot; pageWidth=&quot;850&quot; pageHeight=&quot;1100&quot; math=&quot;0&quot; shadow=&quot;0&quot;&gt;&#10;      &lt;root&gt;&#10;        &lt;mxCell id=&quot;0&quot; /&gt;&#10;        &lt;mxCell id=&quot;1&quot; parent=&quot;0&quot; /&gt;&#10;        &lt;mxCell id=&quot;N0YBsHS7fi_gW5ioU_Kl-18&quot; value=&quot;&quot; style=&quot;edgeStyle=orthogonalEdgeStyle;rounded=0;orthogonalLoop=1;jettySize=auto;html=1;&quot; edge=&quot;1&quot; parent=&quot;1&quot; source=&quot;N0YBsHS7fi_gW5ioU_Kl-1&quot; target=&quot;N0YBsHS7fi_gW5ioU_Kl-17&quot;&gt;&#10;          &lt;mxGeometry relative=&quot;1&quot; as=&quot;geometry&quot; /&gt;&#10;        &lt;/mxCell&gt;&#10;        &lt;mxCell id=&quot;N0YBsHS7fi_gW5ioU_Kl-1&quot; value=&quot;&quot; style=&quot;verticalLabelPosition=bottom;html=1;verticalAlign=top;align=center;strokeColor=none;fillColor=#00BEF2;shape=mxgraph.azure.server;&quot; vertex=&quot;1&quot; parent=&quot;1&quot;&gt;&#10;          &lt;mxGeometry x=&quot;10&quot; y=&quot;290&quot; width=&quot;90&quot; height=&quot;15&quot; as=&quot;geometry&quot; /&gt;&#10;        &lt;/mxCell&gt;&#10;        &lt;mxCell id=&quot;N0YBsHS7fi_gW5ioU_Kl-14&quot; value=&quot;&quot; style=&quot;edgeStyle=orthogonalEdgeStyle;rounded=0;orthogonalLoop=1;jettySize=auto;html=1;&quot; edge=&quot;1&quot; parent=&quot;1&quot; source=&quot;N0YBsHS7fi_gW5ioU_Kl-3&quot; target=&quot;N0YBsHS7fi_gW5ioU_Kl-8&quot;&gt;&#10;          &lt;mxGeometry relative=&quot;1&quot; as=&quot;geometry&quot;&gt;&#10;            &lt;Array as=&quot;points&quot;&gt;&#10;              &lt;mxPoint x=&quot;375&quot; y=&quot;30&quot; /&gt;&#10;              &lt;mxPoint x=&quot;375&quot; y=&quot;30&quot; /&gt;&#10;            &lt;/Array&gt;&#10;          &lt;/mxGeometry&gt;&#10;        &lt;/mxCell&gt;&#10;        &lt;mxCell id=&quot;N0YBsHS7fi_gW5ioU_Kl-3&quot; value=&quot;&quot; style=&quot;image;aspect=fixed;html=1;points=[];align=center;fontSize=12;image=img/lib/azure2/compute/VM_Scale_Sets.svg;&quot; vertex=&quot;1&quot; parent=&quot;1&quot;&gt;&#10;          &lt;mxGeometry x=&quot;315&quot; y=&quot;-130&quot; width=&quot;120&quot; height=&quot;120&quot; as=&quot;geometry&quot; /&gt;&#10;        &lt;/mxCell&gt;&#10;        &lt;mxCell id=&quot;N0YBsHS7fi_gW5ioU_Kl-4&quot; value=&quot;&quot; style=&quot;verticalLabelPosition=bottom;html=1;verticalAlign=top;align=center;strokeColor=none;fillColor=#00BEF2;shape=mxgraph.azure.virtual_machine;&quot; vertex=&quot;1&quot; parent=&quot;1&quot;&gt;&#10;          &lt;mxGeometry x=&quot;340&quot; y=&quot;360&quot; width=&quot;70&quot; height=&quot;47.5&quot; as=&quot;geometry&quot; /&gt;&#10;        &lt;/mxCell&gt;&#10;        &lt;mxCell id=&quot;N0YBsHS7fi_gW5ioU_Kl-7&quot; value=&quot;&quot; style=&quot;verticalLabelPosition=bottom;html=1;verticalAlign=top;align=center;strokeColor=none;fillColor=#00BEF2;shape=mxgraph.azure.virtual_machine;&quot; vertex=&quot;1&quot; parent=&quot;1&quot;&gt;&#10;          &lt;mxGeometry x=&quot;340&quot; y=&quot;250&quot; width=&quot;70&quot; height=&quot;47.5&quot; as=&quot;geometry&quot; /&gt;&#10;        &lt;/mxCell&gt;&#10;        &lt;mxCell id=&quot;N0YBsHS7fi_gW5ioU_Kl-8&quot; value=&quot;&quot; style=&quot;verticalLabelPosition=bottom;html=1;verticalAlign=top;align=center;strokeColor=none;fillColor=#00BEF2;shape=mxgraph.azure.virtual_machine;&quot; vertex=&quot;1&quot; parent=&quot;1&quot;&gt;&#10;          &lt;mxGeometry x=&quot;340&quot; y=&quot;140&quot; width=&quot;70&quot; height=&quot;47.5&quot; as=&quot;geometry&quot; /&gt;&#10;        &lt;/mxCell&gt;&#10;        &lt;mxCell id=&quot;N0YBsHS7fi_gW5ioU_Kl-12&quot; style=&quot;edgeStyle=orthogonalEdgeStyle;rounded=0;orthogonalLoop=1;jettySize=auto;html=1;entryX=0.5;entryY=0;entryDx=0;entryDy=0;&quot; edge=&quot;1&quot; parent=&quot;1&quot;&gt;&#10;          &lt;mxGeometry relative=&quot;1&quot; as=&quot;geometry&quot;&gt;&#10;            &lt;mxPoint x=&quot;270&quot; y=&quot;107.5&quot; as=&quot;sourcePoint&quot; /&gt;&#10;            &lt;mxPoint x=&quot;270&quot; y=&quot;107.5&quot; as=&quot;targetPoint&quot; /&gt;&#10;            &lt;Array as=&quot;points&quot;&gt;&#10;              &lt;mxPoint x=&quot;270&quot; y=&quot;87.5&quot; /&gt;&#10;              &lt;mxPoint x=&quot;450&quot; y=&quot;87.5&quot; /&gt;&#10;              &lt;mxPoint x=&quot;450&quot; y=&quot;507.5&quot; /&gt;&#10;              &lt;mxPoint x=&quot;270&quot; y=&quot;507.5&quot; /&gt;&#10;            &lt;/Array&gt;&#10;          &lt;/mxGeometry&gt;&#10;        &lt;/mxCell&gt;&#10;        &lt;mxCell id=&quot;N0YBsHS7fi_gW5ioU_Kl-20&quot; style=&quot;edgeStyle=orthogonalEdgeStyle;rounded=0;orthogonalLoop=1;jettySize=auto;html=1;entryX=0;entryY=0.5;entryDx=0;entryDy=0;entryPerimeter=0;&quot; edge=&quot;1&quot; parent=&quot;1&quot; source=&quot;N0YBsHS7fi_gW5ioU_Kl-17&quot; target=&quot;N0YBsHS7fi_gW5ioU_Kl-8&quot;&gt;&#10;          &lt;mxGeometry relative=&quot;1&quot; as=&quot;geometry&quot;&gt;&#10;            &lt;mxPoint x=&quot;240&quot; y=&quot;140&quot; as=&quot;targetPoint&quot; /&gt;&#10;          &lt;/mxGeometry&gt;&#10;        &lt;/mxCell&gt;&#10;        &lt;mxCell id=&quot;N0YBsHS7fi_gW5ioU_Kl-17&quot; value=&quot;&quot; style=&quot;verticalLabelPosition=bottom;html=1;verticalAlign=top;align=center;strokeColor=none;fillColor=#00BEF2;shape=mxgraph.azure.azure_load_balancer;&quot; vertex=&quot;1&quot; parent=&quot;1&quot;&gt;&#10;          &lt;mxGeometry x=&quot;150&quot; y=&quot;270&quot; width=&quot;60&quot; height=&quot;50&quot; as=&quot;geometry&quot; /&gt;&#10;        &lt;/mxCell&gt;&#10;        &lt;mxCell id=&quot;N0YBsHS7fi_gW5ioU_Kl-19&quot; style=&quot;edgeStyle=orthogonalEdgeStyle;rounded=0;orthogonalLoop=1;jettySize=auto;html=1;exitX=0.955;exitY=0.5;exitDx=0;exitDy=0;exitPerimeter=0;entryX=0.4;entryY=0.421;entryDx=0;entryDy=0;entryPerimeter=0;&quot; edge=&quot;1&quot; parent=&quot;1&quot; source=&quot;N0YBsHS7fi_gW5ioU_Kl-17&quot; target=&quot;N0YBsHS7fi_gW5ioU_Kl-7&quot;&gt;&#10;          &lt;mxGeometry relative=&quot;1&quot; as=&quot;geometry&quot; /&gt;&#10;        &lt;/mxCell&gt;&#10;        &lt;mxCell id=&quot;N0YBsHS7fi_gW5ioU_Kl-22&quot; value=&quot;&quot; style=&quot;endArrow=classic;html=1;rounded=0;exitX=0.767;exitY=0.68;exitDx=0;exitDy=0;exitPerimeter=0;&quot; edge=&quot;1&quot; parent=&quot;1&quot; source=&quot;N0YBsHS7fi_gW5ioU_Kl-17&quot; target=&quot;N0YBsHS7fi_gW5ioU_Kl-4&quot;&gt;&#10;          &lt;mxGeometry width=&quot;50&quot; height=&quot;50&quot; relative=&quot;1&quot; as=&quot;geometry&quot;&gt;&#10;            &lt;mxPoint x=&quot;430&quot; y=&quot;240&quot; as=&quot;sourcePoint&quot; /&gt;&#10;            &lt;mxPoint x=&quot;480&quot; y=&quot;190&quot; as=&quot;targetPoint&quot; /&gt;&#10;            &lt;Array as=&quot;points&quot;&gt;&#10;              &lt;mxPoint x=&quot;210&quot; y=&quot;390&quot; /&gt;&#10;            &lt;/Array&gt;&#10;          &lt;/mxGeometry&gt;&#10;        &lt;/mxCell&gt;&#10;        &lt;mxCell id=&quot;N0YBsHS7fi_gW5ioU_Kl-23&quot; value=&quot;&quot; style=&quot;image;aspect=fixed;html=1;points=[];align=center;fontSize=12;image=img/lib/azure2/security/Key_Vaults.svg;&quot; vertex=&quot;1&quot; parent=&quot;1&quot;&gt;&#10;          &lt;mxGeometry x=&quot;60&quot; y=&quot;30&quot; width=&quot;68&quot; height=&quot;68&quot; as=&quot;geometry&quot; /&gt;&#10;        &lt;/mxCell&gt;&#10;      &lt;/root&gt;&#10;    &lt;/mxGraphModel&gt;&#10;  &lt;/diagram&gt;&#10;&lt;/mxfile&gt;&#10;" resource="https://app.diagrams.net/#Hpacy035%2Fpacy035.github.io%2Fmaster%2FAssets%2FAuto_Scaling.svg"><defs/><g><g data-cell-id="0"><g data-cell-id="1"><g data-cell-id="N0YBsHS7fi_gW5ioU_Kl-18"><g><path d="M 90 427.5 L 115 427.5 L 115 425 L 133.63 425" fill="none" stroke="#000000" stroke-miterlimit="10" pointer-events="stroke" style="stroke: light-dark(rgb(0, 0, 0), rgb(255, 255, 255));"/><path d="M 138.88 425 L 131.88 428.5 L 133.63 425 L 131.88 421.5 Z" fill="#000000" stroke="#000000" stroke-miterlimit="10" pointer-events="all" style="fill: light-dark(rgb(0, 0, 0), rgb(255, 255, 255)); stroke: light-dark(rgb(0, 0, 0), rgb(255, 255, 255));"/></g></g><g data-cell-id="N0YBsHS7fi_gW5ioU_Kl-1"><g><path d="M 0 421.85 C 0.1 420.81 1.69 420 3.63 420 L 86.28 420 C 88.22 420 89.81 420.81 89.91 421.85 L 90 433.04 C 90 433.56 89.61 434.07 88.91 434.43 C 88.2 434.8 87.26 435 86.28 434.99 L 3.63 434.99 C 2.67 434.99 1.74 434.78 1.06 434.42 C 0.38 434.05 0 433.56 0 433.04 Z M 10.89 431.43 C 10.89 430.49 9.47 429.73 7.71 429.73 C 5.96 429.73 4.54 430.49 4.54 431.43 C 4.54 432.37 5.96 433.14 7.71 433.14 C 9.47 433.14 10.89 432.37 10.89 431.43 Z M 65.32 431.29 C 64.77 431.29 64.32 431.53 64.32 431.82 C 64.32 432.12 64.77 432.36 65.32 432.36 L 83.47 432.36 C 84.02 432.36 84.47 432.12 84.47 431.82 C 84.47 431.53 84.02 431.29 83.47 431.29 Z M 65.32 429.44 C 64.77 429.44 64.32 429.68 64.32 429.97 C 64.32 430.27 64.77 430.51 65.32 430.51 L 83.47 430.51 C 84.02 430.51 84.47 430.27 84.47 429.97 C 84.47 429.68 84.02 429.44 83.47 429.44 Z M 65.32 427.54 C 64.77 427.54 64.32 427.78 64.32 428.08 C 64.32 428.37 64.77 428.61 65.32 428.61 L 83.47 428.61 C 84.02 428.61 84.47 428.37 84.47 428.08 C 84.47 427.78 84.02 427.54 83.47 427.54 Z" fill="#00bef2" stroke="none" pointer-events="all" style="fill: light-dark(rgb(0, 190, 242), rgb(0, 137, 182));"/></g></g><g data-cell-id="N0YBsHS7fi_gW5ioU_Kl-14"><g><path d="M 365 120 L 365 160 L 365 263.63" fill="none" stroke="#000000" stroke-miterlimit="10" pointer-events="stroke" style="stroke: light-dark(rgb(0, 0, 0), rgb(255, 255, 255));"/><path d="M 365 268.88 L 361.5 261.88 L 365 263.63 L 368.5 261.88 Z" fill="#000000" stroke="#000000" stroke-miterlimit="10" pointer-events="all" style="fill: light-dark(rgb(0, 0, 0), rgb(255, 255, 255)); stroke: light-dark(rgb(0, 0, 0), rgb(255, 255, 255));"/></g></g><g data-cell-id="N0YBsHS7fi_gW5ioU_Kl-3"><g><image x="305" y="0" width="120" height="120" xlink:href="https://app.diagrams.net/img/lib/azure2/compute/VM_Scale_Sets.svg"/></g></g><g data-cell-id="N0YBsHS7fi_gW5ioU_Kl-4"><g><path d="M 330 492.57 C 330.21 491.23 331.45 490.18 333.03 490 L 396.83 490 C 398.32 490.08 399.59 490.94 400 492.15 L 400 535.23 C 399.76 536.28 398.87 537.15 397.67 537.5 L 333.03 537.5 C 331.56 537.36 330.35 536.45 330 535.23 Z M 350.8 516.5 C 350.88 517.32 351.6 517.98 352.56 518.12 L 362 518.06 L 362.29 519.67 C 362.18 520.55 361.35 521.23 360.31 521.29 C 358.92 521.51 357.5 521.61 356.08 521.59 L 356.08 522.9 L 376.31 522.9 L 376.31 521.59 C 374.95 521.64 373.58 521.58 372.23 521.41 C 371.65 521.44 371.09 521.27 370.66 520.95 C 370.24 520.62 369.99 520.16 369.97 519.67 L 370.25 518.06 L 379.91 518.06 C 380.74 517.9 381.38 517.33 381.53 516.62 L 381.53 500.35 C 381.25 499.78 380.63 499.37 379.91 499.27 L 352.63 499.27 C 351.79 499.33 351.07 499.8 350.8 500.47 Z M 352.98 516.2 L 352.98 501.13 L 379.35 501.13 L 379.35 516.2 Z M 361.16 511.9 L 366.16 514.23 L 366.09 509.32 L 361.16 506.99 Z M 366.66 508.78 L 371.73 506.33 L 366.66 503.82 L 361.51 506.27 Z M 367.01 509.38 L 367.01 514.29 L 372.08 511.84 L 372.08 506.93 Z M 358.97 528.89 L 361.16 534.51 L 362.78 534.51 L 365.11 528.89 L 363.77 528.89 L 362 533.07 L 360.31 528.89 Z M 365.67 534.45 L 366.87 534.45 L 366.87 529.84 L 368.84 534.45 L 370.11 534.45 L 372.01 529.84 L 372.01 534.45 L 373.35 534.45 L 373.35 528.89 L 371.31 528.89 L 369.55 532.77 L 367.71 528.89 L 365.67 528.89 Z" fill="#00bef2" stroke="none" pointer-events="all" style="fill: light-dark(rgb(0, 190, 242), rgb(0, 137, 182));"/></g></g><g data-cell-id="N0YBsHS7fi_gW5ioU_Kl-7"><g><path d="M 330 382.57 C 330.21 381.23 331.45 380.18 333.03 380 L 396.83 380 C 398.32 380.08 399.59 380.94 400 382.15 L 400 425.23 C 399.76 426.28 398.87 427.15 397.67 427.5 L 333.03 427.5 C 331.56 427.36 330.35 426.45 330 425.23 Z M 350.8 406.5 C 350.88 407.32 351.6 407.98 352.56 408.12 L 362 408.06 L 362.29 409.67 C 362.18 410.55 361.35 411.23 360.31 411.29 C 358.92 411.51 357.5 411.61 356.08 411.59 L 356.08 412.9 L 376.31 412.9 L 376.31 411.59 C 374.95 411.64 373.58 411.58 372.23 411.41 C 371.65 411.44 371.09 411.27 370.66 410.95 C 370.24 410.62 369.99 410.16 369.97 409.67 L 370.25 408.06 L 379.91 408.06 C 380.74 407.9 381.38 407.33 381.53 406.62 L 381.53 390.35 C 381.25 389.78 380.63 389.37 379.91 389.27 L 352.63 389.27 C 351.79 389.33 351.07 389.8 350.8 390.47 Z M 352.98 406.2 L 352.98 391.13 L 379.35 391.13 L 379.35 406.2 Z M 361.16 401.9 L 366.16 404.23 L 366.09 399.32 L 361.16 396.99 Z M 366.66 398.78 L 371.73 396.33 L 366.66 393.82 L 361.51 396.27 Z M 367.01 399.38 L 367.01 404.29 L 372.08 401.84 L 372.08 396.93 Z M 358.97 418.89 L 361.16 424.51 L 362.78 424.51 L 365.11 418.89 L 363.77 418.89 L 362 423.07 L 360.31 418.89 Z M 365.67 424.45 L 366.87 424.45 L 366.87 419.84 L 368.84 424.45 L 370.11 424.45 L 372.01 419.84 L 372.01 424.45 L 373.35 424.45 L 373.35 418.89 L 371.31 418.89 L 369.55 422.77 L 367.71 418.89 L 365.67 418.89 Z" fill="#00bef2" stroke="none" pointer-events="all" style="fill: light-dark(rgb(0, 190, 242), rgb(0, 137, 182));"/></g></g><g data-cell-id="N0YBsHS7fi_gW5ioU_Kl-8"><g><path d="M 330 272.57 C 330.21 271.23 331.45 270.18 333.03 270 L 396.83 270 C 398.32 270.08 399.59 270.94 400 272.15 L 400 315.23 C 399.76 316.28 398.87 317.15 397.67 317.5 L 333.03 317.5 C 331.56 317.36 330.35 316.45 330 315.23 Z M 350.8 296.5 C 350.88 297.32 351.6 297.98 352.56 298.12 L 362 298.06 L 362.29 299.67 C 362.18 300.55 361.35 301.23 360.31 301.29 C 358.92 301.51 357.5 301.61 356.08 301.59 L 356.08 302.9 L 376.31 302.9 L 376.31 301.59 C 374.95 301.64 373.58 301.58 372.23 301.41 C 371.65 301.44 371.09 301.27 370.66 300.95 C 370.24 300.62 369.99 300.16 369.97 299.67 L 370.25 298.06 L 379.91 298.06 C 380.74 297.9 381.38 297.33 381.53 296.62 L 381.53 280.35 C 381.25 279.78 380.63 279.37 379.91 279.27 L 352.63 279.27 C 351.79 279.33 351.07 279.8 350.8 280.47 Z M 352.98 296.2 L 352.98 281.13 L 379.35 281.13 L 379.35 296.2 Z M 361.16 291.9 L 366.16 294.23 L 366.09 289.32 L 361.16 286.99 Z M 366.66 288.78 L 371.73 286.33 L 366.66 283.82 L 361.51 286.27 Z M 367.01 289.38 L 367.01 294.29 L 372.08 291.84 L 372.08 286.93 Z M 358.97 308.89 L 361.16 314.51 L 362.78 314.51 L 365.11 308.89 L 363.77 308.89 L 362 313.07 L 360.31 308.89 Z M 365.67 314.45 L 366.87 314.45 L 366.87 309.84 L 368.84 314.45 L 370.11 314.45 L 372.01 309.84 L 372.01 314.45 L 373.35 314.45 L 373.35 308.89 L 371.31 308.89 L 369.55 312.77 L 367.71 308.89 L 365.67 308.89 Z" fill="#00bef2" stroke="none" pointer-events="all" style="fill: light-dark(rgb(0, 190, 242), rgb(0, 137, 182));"/></g></g><g data-cell-id="N0YBsHS7fi_gW5ioU_Kl-12"><g><path d="M 260 237.5 L 260 217.5 L 440 217.5 L 440 637.5 L 260 637.5 L 260 243.87" fill="none" stroke="#000000" stroke-miterlimit="10" pointer-events="stroke" style="stroke: light-dark(rgb(0, 0, 0), rgb(255, 255, 255));"/><path d="M 260 238.62 L 263.5 245.62 L 260 243.87 L 256.5 245.62 Z" fill="#000000" stroke="#000000" stroke-miterlimit="10" pointer-events="all" style="fill: light-dark(rgb(0, 0, 0), rgb(255, 255, 255)); stroke: light-dark(rgb(0, 0, 0), rgb(255, 255, 255));"/></g></g><g data-cell-id="N0YBsHS7fi_gW5ioU_Kl-20"><g><path d="M 200 425 L 265 425 L 265 293.8 L 323.63 293.75" fill="none" stroke="#000000" stroke-miterlimit="10" pointer-events="stroke" style="stroke: light-dark(rgb(0, 0, 0), rgb(255, 255, 255));"/><path d="M 328.88 293.75 L 321.88 297.26 L 323.63 293.75 L 321.88 290.26 Z" fill="#000000" stroke="#000000" stroke-miterlimit="10" pointer-events="all" style="fill: light-dark(rgb(0, 0, 0), rgb(255, 255, 255)); stroke: light-dark(rgb(0, 0, 0), rgb(255, 255, 255));"/></g></g><g data-cell-id="N0YBsHS7fi_gW5ioU_Kl-17"><g><path d="M 140.4 442.96 L 146.18 401.5 C 146.39 400.61 147.17 400 148.05 400.06 L 192.88 400.06 C 193.61 400.17 194.21 400.74 194.38 401.5 L 199.61 442.96 C 200 446.05 198.9 449.12 197.09 450 L 142.69 450 C 140.98 448.96 140 445.94 140.4 442.96 Z M 157.37 433.88 L 164.29 433.88 C 164.69 433.88 165.01 433.38 165.01 432.75 C 165.01 432.12 164.69 431.61 164.29 431.61 L 160.68 431.61 L 168.14 422.15 L 168.14 441.07 L 165.8 438.04 C 165.46 437.52 164.86 437.44 164.44 437.86 C 164.03 438.27 163.96 439.04 164.29 439.56 L 169.17 445.61 L 173.92 439.56 C 174.25 439.04 174.19 438.27 173.77 437.86 C 173.35 437.44 172.75 437.52 172.42 438.04 L 170.13 440.69 L 170.13 422.15 L 177.53 431.46 L 174.4 431.46 C 173.84 431.46 173.38 432.04 173.38 432.75 C 173.38 433.46 173.84 434.03 174.4 434.03 L 181.08 434.03 L 181.08 425.64 C 181.08 424.95 180.64 424.39 180.09 424.39 C 179.54 424.39 179.1 424.95 179.1 425.64 L 179.1 429.87 L 170.13 418.75 L 170.13 412.85 C 171.51 412.24 172.35 410.46 172.1 408.64 C 171.86 406.82 170.6 405.49 169.14 405.49 C 167.67 405.49 166.42 406.82 166.17 408.64 C 165.92 410.46 166.76 412.24 168.14 412.85 L 168.14 418.75 L 159.42 429.65 L 159.42 425.64 C 159.42 424.93 158.96 424.35 158.4 424.35 C 157.83 424.35 157.37 424.93 157.37 425.64 Z" fill="#00bef2" stroke="none" pointer-events="all" style="fill: light-dark(rgb(0, 190, 242), rgb(0, 137, 182));"/></g></g><g data-cell-id="N0YBsHS7fi_gW5ioU_Kl-19"><g><path d="M 197.3 425 L 265 425 L 265 400 L 351.63 400" fill="none" stroke="#000000" stroke-miterlimit="10" pointer-events="stroke" style="stroke: light-dark(rgb(0, 0, 0), rgb(255, 255, 255));"/><path d="M 356.88 400 L 349.88 403.5 L 351.63 400 L 349.88 396.5 Z" fill="#000000" stroke="#000000" stroke-miterlimit="10" pointer-events="all" style="fill: light-dark(rgb(0, 0, 0), rgb(255, 255, 255)); stroke: light-dark(rgb(0, 0, 0), rgb(255, 255, 255));"/></g></g><g data-cell-id="N0YBsHS7fi_gW5ioU_Kl-22"><g><path d="M 186.02 434 L 200 520 L 323.64 515.32" fill="none" stroke="#000000" stroke-miterlimit="10" pointer-events="stroke" style="stroke: light-dark(rgb(0, 0, 0), rgb(255, 255, 255));"/><path d="M 328.88 515.12 L 322.02 518.88 L 323.64 515.32 L 321.76 511.89 Z" fill="#000000" stroke="#000000" stroke-miterlimit="10" pointer-events="all" style="fill: light-dark(rgb(0, 0, 0), rgb(255, 255, 255)); stroke: light-dark(rgb(0, 0, 0), rgb(255, 255, 255));"/></g></g><g data-cell-id="N0YBsHS7fi_gW5ioU_Kl-23"><g><image x="50" y="160" width="68" height="68" xlink:href="https://app.diagrams.net/img/lib/azure2/security/Key_Vaults.svg"/></g></g></g></g></g></svg>